# Blender 5.0.1
# www.blender.org
o node_MeshObject692821632-PolyPaper4
v -0.277994 1.543641 0.596255
v -0.285878 1.699911 0.604389
v -0.301116 1.708946 0.476566
v -0.293232 1.552676 0.468432
v -0.427058 1.534453 0.608892
v -0.442296 1.543488 0.481069
v -0.450179 1.699758 0.489202
v -0.434941 1.690723 0.617025
v -0.277994 1.543641 0.596255
v -0.427058 1.534453 0.608892
v -0.434941 1.690723 0.617025
v -0.285878 1.699911 0.604389
v -0.293232 1.552676 0.468432
v -0.301116 1.708946 0.476566
v -0.450179 1.699758 0.489202
v -0.442296 1.543488 0.481069
v -0.277994 1.543641 0.596255
v -0.293232 1.552676 0.468432
v -0.442296 1.543488 0.481069
v -0.427058 1.534453 0.608892
v -0.285878 1.699911 0.604389
v -0.434941 1.690723 0.617025
v -0.450179 1.699758 0.489202
v -0.301116 1.708946 0.476566
v 0.140275 1.782004 0.469933
v 0.143538 1.886363 0.465846
v 0.126715 1.882025 0.381341
v 0.123452 1.777666 0.385428
v 0.041722 1.786199 0.484223
v 0.024900 1.781861 0.399718
v 0.028162 1.886220 0.395631
v 0.044985 1.890558 0.480136
v 0.140275 1.782004 0.469933
v 0.041722 1.786199 0.484223
v 0.044985 1.890558 0.480136
v 0.143538 1.886363 0.465846
v 0.123452 1.777666 0.385428
v 0.126715 1.882025 0.381341
v 0.028162 1.886220 0.395631
v 0.024900 1.781861 0.399718
v 0.140275 1.782004 0.469933
v 0.123452 1.777666 0.385428
v 0.024900 1.781861 0.399718
v 0.041722 1.786199 0.484223
v 0.143538 1.886363 0.465846
v 0.044985 1.890558 0.480136
v 0.028162 1.886220 0.395631
v 0.126715 1.882025 0.381341
v 0.219477 1.935883 0.427743
v 0.279339 1.933501 0.414400
v 0.166103 1.869161 0.427499
v 0.224946 1.887136 0.420209
v 0.279339 1.933501 0.414400
v 0.266083 1.891441 0.375707
v 0.169823 1.830367 0.385142
v 0.166103 1.869161 0.427499
v 0.266083 1.891441 0.375707
v 0.206222 1.893824 0.389050
v 0.228665 1.848342 0.377852
v 0.169823 1.830367 0.385142
v 0.206222 1.893824 0.389050
v 0.219477 1.935883 0.427743
v 0.224946 1.887136 0.420209
v 0.228665 1.848342 0.377852
v 0.224946 1.887136 0.420209
v 0.166103 1.869161 0.427499
v 0.169823 1.830367 0.385142
v 0.228665 1.848342 0.377852
v 0.206222 1.893824 0.389050
v 0.266083 1.891441 0.375707
v 0.279339 1.933501 0.414400
v 0.219477 1.935883 0.427743
v 0.230965 1.233565 0.914880
v 0.231198 1.390237 0.909683
v 0.435275 1.388873 0.888698
v 0.435043 1.232201 0.893895
v 0.175213 1.214058 0.516836
v 0.379290 1.212694 0.495850
v 0.379523 1.369366 0.490653
v 0.175445 1.370730 0.511639
v 0.230965 1.233565 0.914880
v 0.175213 1.214058 0.516836
v 0.175445 1.370730 0.511639
v 0.231198 1.390237 0.909683
v 0.435043 1.232201 0.893895
v 0.435275 1.388873 0.888698
v 0.379523 1.369366 0.490653
v 0.379290 1.212694 0.495850
v 0.230965 1.233565 0.914880
v 0.435043 1.232201 0.893895
v 0.379290 1.212694 0.495850
v 0.175213 1.214058 0.516836
v 0.231198 1.390237 0.909683
v 0.175445 1.370730 0.511639
v 0.379523 1.369366 0.490653
v 0.435275 1.388873 0.888698
v 0.336190 1.205454 0.505131
v 0.341817 1.394573 0.501421
v 0.310458 1.336604 0.389072
v 0.304831 1.147484 0.392783
v -0.427108 1.232703 0.589234
v -0.458467 1.174734 0.476885
v -0.452841 1.363853 0.473175
v -0.421481 1.421823 0.585524
v 0.336190 1.205454 0.505131
v -0.427108 1.232703 0.589234
v -0.421481 1.421823 0.585524
v 0.341817 1.394573 0.501421
v 0.304831 1.147484 0.392783
v 0.310458 1.336604 0.389072
v -0.452841 1.363853 0.473175
v -0.458467 1.174734 0.476885
v 0.336190 1.205454 0.505131
v 0.304831 1.147484 0.392783
v -0.458467 1.174734 0.476885
v -0.427108 1.232703 0.589234
v 0.341817 1.394573 0.501421
v -0.421481 1.421823 0.585524
v -0.452841 1.363853 0.473175
v 0.310458 1.336604 0.389072
v -0.075076 1.526468 0.473181
v -0.014185 1.528016 0.463761
v -0.034321 1.482073 0.464152
v -0.095227 1.480644 0.473514
v -0.014185 1.528016 0.463761
v -0.022786 1.494212 0.419108
v -0.043090 1.449633 0.418845
v -0.034321 1.482073 0.464152
v -0.022786 1.494212 0.419108
v -0.083678 1.492663 0.428527
v -0.103996 1.448204 0.428207
v -0.043090 1.449633 0.418845
v -0.083678 1.492663 0.428527
v -0.075076 1.526468 0.473181
v -0.095227 1.480644 0.473514
v -0.103996 1.448204 0.428207
v -0.095227 1.480644 0.473514
v -0.034321 1.482073 0.464152
v -0.043090 1.449633 0.418845
v -0.103996 1.448204 0.428207
v -0.083678 1.492663 0.428527
v -0.022786 1.494212 0.419108
v -0.014185 1.528016 0.463761
v -0.075076 1.526468 0.473181
v -0.139382 1.388896 0.550312
v -0.131672 1.545474 0.552068
v -0.151418 1.548659 0.424510
v -0.159129 1.392080 0.422755
v -0.310876 1.397790 0.569994
v -0.330622 1.400975 0.442437
v -0.322912 1.557553 0.444192
v -0.303165 1.554369 0.571749
v -0.139382 1.388896 0.550312
v -0.310876 1.397790 0.569994
v -0.303165 1.554369 0.571749
v -0.131672 1.545474 0.552068
v -0.159129 1.392080 0.422755
v -0.151418 1.548659 0.424510
v -0.322912 1.557553 0.444192
v -0.330622 1.400975 0.442437
v -0.139382 1.388896 0.550312
v -0.159129 1.392080 0.422755
v -0.330622 1.400975 0.442437
v -0.310876 1.397790 0.569994
v -0.131672 1.545474 0.552068
v -0.303165 1.554369 0.571749
v -0.322912 1.557553 0.444192
v -0.151418 1.548659 0.424510
v -0.325022 1.494261 0.926806
v -0.336904 1.728973 0.919694
v -0.398457 1.717230 0.734249
v -0.386575 1.482518 0.741361
v -0.541186 1.484702 0.980002
v -0.602739 1.472960 0.794557
v -0.614622 1.707672 0.787446
v -0.553068 1.719415 0.972891
v -0.325022 1.494261 0.926806
v -0.541186 1.484702 0.980002
v -0.553068 1.719415 0.972891
v -0.336904 1.728973 0.919694
v -0.386575 1.482518 0.741361
v -0.398457 1.717230 0.734249
v -0.614622 1.707672 0.787446
v -0.602739 1.472960 0.794557
v -0.325022 1.494261 0.926806
v -0.386575 1.482518 0.741361
v -0.602739 1.472960 0.794557
v -0.541186 1.484702 0.980002
v -0.336904 1.728973 0.919694
v -0.553068 1.719415 0.972891
v -0.614622 1.707672 0.787446
v -0.398457 1.717230 0.734249
v -0.390529 1.489489 0.801554
v -0.393706 1.724656 0.803346
v -0.453653 1.725877 0.617268
v -0.450476 1.490710 0.615475
v -0.607447 1.485708 0.852952
v -0.667394 1.486928 0.666874
v -0.670571 1.722095 0.668666
v -0.610624 1.720875 0.854744
v -0.390529 1.489489 0.801554
v -0.607447 1.485708 0.852952
v -0.610624 1.720875 0.854744
v -0.393706 1.724656 0.803346
v -0.450476 1.490710 0.615475
v -0.453653 1.725877 0.617268
v -0.670571 1.722095 0.668666
v -0.667394 1.486928 0.666874
v -0.390529 1.489489 0.801554
v -0.450476 1.490710 0.615475
v -0.667394 1.486928 0.666874
v -0.607447 1.485708 0.852952
v -0.393706 1.724656 0.803346
v -0.610624 1.720875 0.854744
v -0.670571 1.722095 0.668666
v -0.453653 1.725877 0.617268
v -0.283171 1.445143 0.860494
v -0.280471 1.680315 0.858667
v -0.333085 1.678810 0.670965
v -0.335785 1.443637 0.672792
v -0.501989 1.448405 0.905604
v -0.554603 1.446900 0.717902
v -0.551904 1.682073 0.716075
v -0.499290 1.683578 0.903777
v -0.283171 1.445143 0.860494
v -0.501989 1.448405 0.905604
v -0.499290 1.683578 0.903777
v -0.280471 1.680315 0.858667
v -0.335785 1.443637 0.672792
v -0.333085 1.678810 0.670965
v -0.551904 1.682073 0.716075
v -0.554603 1.446900 0.717902
v -0.283171 1.445143 0.860494
v -0.335785 1.443637 0.672792
v -0.554603 1.446900 0.717902
v -0.501989 1.448405 0.905604
v -0.280471 1.680315 0.858667
v -0.499290 1.683578 0.903777
v -0.551904 1.682073 0.716075
v -0.333085 1.678810 0.670965
v -0.344444 1.583653 0.875167
v -0.343571 1.818769 0.870054
v -0.399190 1.812958 0.683047
v -0.400062 1.577842 0.688161
v -0.562533 1.586076 0.922839
v -0.618151 1.580265 0.735832
v -0.617279 1.815381 0.730719
v -0.561660 1.821192 0.917726
v -0.344444 1.583653 0.875167
v -0.562533 1.586076 0.922839
v -0.561660 1.821192 0.917726
v -0.343571 1.818769 0.870054
v -0.400062 1.577842 0.688161
v -0.399190 1.812958 0.683047
v -0.617279 1.815381 0.730719
v -0.618151 1.580265 0.735832
v -0.344444 1.583653 0.875167
v -0.400062 1.577842 0.688161
v -0.618151 1.580265 0.735832
v -0.562533 1.586076 0.922839
v -0.343571 1.818769 0.870054
v -0.561660 1.821192 0.917726
v -0.617279 1.815381 0.730719
v -0.399190 1.812958 0.683047
v -0.344317 1.448062 0.853458
v -0.336647 1.683005 0.859641
v -0.395678 1.692381 0.673504
v -0.403347 1.457438 0.667321
v -0.561374 1.453815 0.904298
v -0.620404 1.463190 0.718161
v -0.612734 1.698133 0.724344
v -0.553704 1.688757 0.910482
v -0.344317 1.448062 0.853458
v -0.561374 1.453815 0.904298
v -0.553704 1.688757 0.910482
v -0.336647 1.683005 0.859641
v -0.403347 1.457438 0.667321
v -0.395678 1.692381 0.673504
v -0.612734 1.698133 0.724344
v -0.620404 1.463190 0.718161
v -0.344317 1.448062 0.853458
v -0.403347 1.457438 0.667321
v -0.620404 1.463190 0.718161
v -0.561374 1.453815 0.904298
v -0.336647 1.683005 0.859641
v -0.553704 1.688757 0.910482
v -0.612734 1.698133 0.724344
v -0.395678 1.692381 0.673504
v -0.486886 1.481275 0.934684
v -0.500039 1.716008 0.939215
v -0.542038 1.718871 0.749565
v -0.528885 1.484138 0.745035
v -0.707613 1.466742 0.970500
v -0.749612 1.469605 0.780851
v -0.762764 1.704339 0.785381
v -0.720765 1.701476 0.975031
v -0.486886 1.481275 0.934684
v -0.707613 1.466742 0.970500
v -0.720765 1.701476 0.975031
v -0.500039 1.716008 0.939215
v -0.528885 1.484138 0.745035
v -0.542038 1.718871 0.749565
v -0.762764 1.704339 0.785381
v -0.749612 1.469605 0.780851
v -0.486886 1.481275 0.934684
v -0.528885 1.484138 0.745035
v -0.749612 1.469605 0.780851
v -0.707613 1.466742 0.970500
v -0.500039 1.716008 0.939215
v -0.720765 1.701476 0.975031
v -0.762764 1.704339 0.785381
v -0.542038 1.718871 0.749565
v -0.408001 0.520388 0.771306
v -0.364674 0.556278 1.028703
v -0.354124 1.557819 0.933311
v -0.397452 1.521929 0.675914
v -0.683419 0.528274 0.804674
v -0.672870 1.529814 0.709282
v -0.629542 1.565704 0.966680
v -0.640092 0.564164 1.062072
v -0.408001 0.520388 0.771306
v -0.683419 0.528274 0.804674
v -0.640092 0.564164 1.062072
v -0.364674 0.556278 1.028703
v -0.397452 1.521929 0.675914
v -0.354124 1.557819 0.933311
v -0.629542 1.565704 0.966680
v -0.672870 1.529814 0.709282
v -0.408001 0.520388 0.771306
v -0.397452 1.521929 0.675914
v -0.672870 1.529814 0.709282
v -0.683419 0.528274 0.804674
v -0.364674 0.556278 1.028703
v -0.640092 0.564164 1.062072
v -0.629542 1.565704 0.966680
v -0.354124 1.557819 0.933311
v -0.178161 -0.402979 0.527984
v -0.108543 -0.408575 1.145699
v -0.098130 -0.173628 1.146270
v -0.167748 -0.168031 0.528555
v -0.401946 -0.392214 0.546606
v -0.391533 -0.157267 0.547177
v -0.321914 -0.162863 1.164892
v -0.332328 -0.397811 1.164321
v -0.178161 -0.402979 0.527984
v -0.401946 -0.392214 0.546606
v -0.332328 -0.397811 1.164321
v -0.108543 -0.408575 1.145699
v -0.167748 -0.168031 0.528555
v -0.098130 -0.173628 1.146270
v -0.321914 -0.162863 1.164892
v -0.391533 -0.157267 0.547177
v -0.178161 -0.402979 0.527984
v -0.167748 -0.168031 0.528555
v -0.391533 -0.157267 0.547177
v -0.401946 -0.392214 0.546606
v -0.108543 -0.408575 1.145699
v -0.332328 -0.397811 1.164321
v -0.321914 -0.162863 1.164892
v -0.098130 -0.173628 1.146270
v 0.250049 -0.407637 0.436902
v 0.375397 -0.401836 0.899210
v 0.381979 -0.171969 0.895954
v 0.256631 -0.177770 0.433646
v 0.027499 -0.399746 0.481230
v 0.034081 -0.169878 0.477974
v 0.159429 -0.164078 0.940282
v 0.152847 -0.393945 0.943538
v 0.250049 -0.407637 0.436902
v 0.027499 -0.399746 0.481230
v 0.152847 -0.393945 0.943538
v 0.375397 -0.401836 0.899210
v 0.256631 -0.177770 0.433646
v 0.381979 -0.171969 0.895954
v 0.159429 -0.164078 0.940282
v 0.034081 -0.169878 0.477974
v 0.250049 -0.407637 0.436902
v 0.256631 -0.177770 0.433646
v 0.034081 -0.169878 0.477974
v 0.027499 -0.399746 0.481230
v 0.375397 -0.401836 0.899210
v 0.152847 -0.393945 0.943538
v 0.159429 -0.164078 0.940282
v 0.381979 -0.171969 0.895954
v -0.170185 -0.199261 0.531163
v -0.099466 -0.175478 1.115073
v -0.066674 0.603355 1.090779
v -0.137393 0.579572 0.506868
v -0.393834 -0.188070 0.550784
v -0.361043 0.590763 0.526490
v -0.290324 0.614546 1.110401
v -0.323115 -0.164287 1.134695
v -0.170185 -0.199261 0.531163
v -0.393834 -0.188070 0.550784
v -0.323115 -0.164287 1.134695
v -0.099466 -0.175478 1.115073
v -0.137393 0.579572 0.506868
v -0.066674 0.603355 1.090779
v -0.290324 0.614546 1.110401
v -0.361043 0.590763 0.526490
v -0.170185 -0.199261 0.531163
v -0.137393 0.579572 0.506868
v -0.361043 0.590763 0.526490
v -0.393834 -0.188070 0.550784
v -0.099466 -0.175478 1.115073
v -0.323115 -0.164287 1.134695
v -0.290324 0.614546 1.110401
v -0.066674 0.603355 1.090779
v 0.256139 -0.198476 0.440540
v 0.374738 -0.179096 0.903839
v 0.397203 0.594470 0.877807
v 0.278604 0.575090 0.414508
v 0.036405 -0.189453 0.481671
v 0.058870 0.584113 0.455638
v 0.177469 0.603493 0.918937
v 0.155003 -0.170073 0.944970
v 0.256139 -0.198476 0.440540
v 0.036405 -0.189453 0.481671
v 0.155003 -0.170073 0.944970
v 0.374738 -0.179096 0.903839
v 0.278604 0.575090 0.414508
v 0.397203 0.594470 0.877807
v 0.177469 0.603493 0.918937
v 0.058870 0.584113 0.455638
v 0.256139 -0.198476 0.440540
v 0.278604 0.575090 0.414508
v 0.058870 0.584113 0.455638
v 0.036405 -0.189453 0.481671
v 0.374738 -0.179096 0.903839
v 0.155003 -0.170073 0.944970
v 0.177469 0.603493 0.918937
v 0.397203 0.594470 0.877807
v 0.429194 0.528308 0.958254
v 0.440276 0.779254 0.954825
v 0.299282 0.774702 0.395255
v 0.288199 0.523756 0.398685
v -0.269785 0.564643 1.087635
v -0.410780 0.560092 0.528065
v -0.399697 0.811037 0.524636
v -0.258702 0.815589 1.084205
v 0.429194 0.528308 0.958254
v -0.269785 0.564643 1.087635
v -0.258702 0.815589 1.084205
v 0.440276 0.779254 0.954825
v 0.288199 0.523756 0.398685
v 0.299282 0.774702 0.395255
v -0.399697 0.811037 0.524636
v -0.410780 0.560092 0.528065
v 0.429194 0.528308 0.958254
v 0.288199 0.523756 0.398685
v -0.410780 0.560092 0.528065
v -0.269785 0.564643 1.087635
v 0.440276 0.779254 0.954825
v -0.258702 0.815589 1.084205
v -0.399697 0.811037 0.524636
v 0.299282 0.774702 0.395255
v 0.696944 0.595961 0.620166
v 0.711184 1.562923 0.589724
v 0.671428 1.554689 0.399825
v 0.657188 0.587727 0.430266
v 0.415760 0.602498 0.663285
v 0.376004 0.594264 0.473386
v 0.390244 1.561226 0.442944
v 0.429999 1.569460 0.632843
v 0.696944 0.595961 0.620166
v 0.415760 0.602498 0.663285
v 0.429999 1.569460 0.632843
v 0.711184 1.562923 0.589724
v 0.657188 0.587727 0.430266
v 0.671428 1.554689 0.399825
v 0.390244 1.561226 0.442944
v 0.376004 0.594264 0.473386
v 0.696944 0.595961 0.620166
v 0.657188 0.587727 0.430266
v 0.376004 0.594264 0.473386
v 0.415760 0.602498 0.663285
v 0.711184 1.562923 0.589724
v 0.429999 1.569460 0.632843
v 0.390244 1.561226 0.442944
v 0.671428 1.554689 0.399825
v 0.412719 0.552338 0.903622
v 0.436680 1.249251 0.883470
v 0.312114 1.232823 0.391748
v 0.288153 0.535909 0.411901
v -0.252147 0.582590 1.026860
v -0.376713 0.566162 0.535139
v -0.352752 1.263075 0.514986
v -0.228186 1.279503 1.006708
v 0.412719 0.552338 0.903622
v -0.252147 0.582590 1.026860
v -0.228186 1.279503 1.006708
v 0.436680 1.249251 0.883470
v 0.288153 0.535909 0.411901
v 0.312114 1.232823 0.391748
v -0.352752 1.263075 0.514986
v -0.376713 0.566162 0.535139
v 0.412719 0.552338 0.903622
v 0.288153 0.535909 0.411901
v -0.376713 0.566162 0.535139
v -0.252147 0.582590 1.026860
v 0.436680 1.249251 0.883470
v -0.228186 1.279503 1.006708
v -0.352752 1.263075 0.514986
v 0.312114 1.232823 0.391748
v -0.365051 1.054673 0.512946
v -0.360314 1.211117 0.505286
v -0.307400 1.409535 1.001467
v -0.312137 1.253091 1.009126
v 0.294683 1.025360 0.409769
v 0.347598 1.223778 0.905950
v 0.352335 1.380221 0.898290
v 0.299420 1.181804 0.402109
v -0.365051 1.054673 0.512946
v 0.294683 1.025360 0.409769
v 0.299420 1.181804 0.402109
v -0.360314 1.211117 0.505286
v -0.312137 1.253091 1.009126
v -0.307400 1.409535 1.001467
v 0.352335 1.380221 0.898290
v 0.347598 1.223778 0.905950
v -0.365051 1.054673 0.512946
v -0.312137 1.253091 1.009126
v 0.347598 1.223778 0.905950
v 0.294683 1.025360 0.409769
v -0.360314 1.211117 0.505286
v 0.299420 1.181804 0.402109
v 0.352335 1.380221 0.898290
v -0.307400 1.409535 1.001467
v -0.426822 1.250859 0.442770
v -0.421085 1.406963 0.453843
v -0.364179 1.375214 0.733684
v -0.369916 1.219110 0.722610
v 0.279176 1.233786 0.335838
v 0.336082 1.202037 0.615679
v 0.341818 1.358140 0.626753
v 0.284912 1.389889 0.346912
v -0.426822 1.250859 0.442770
v 0.279176 1.233786 0.335838
v 0.284912 1.389889 0.346912
v -0.421085 1.406963 0.453843
v -0.369916 1.219110 0.722610
v -0.364179 1.375214 0.733684
v 0.341818 1.358140 0.626753
v 0.336082 1.202037 0.615679
v -0.426822 1.250859 0.442770
v -0.369916 1.219110 0.722610
v 0.336082 1.202037 0.615679
v 0.279176 1.233786 0.335838
v -0.421085 1.406963 0.453843
v 0.284912 1.389889 0.346912
v 0.341818 1.358140 0.626753
v -0.364179 1.375214 0.733684
v 0.503317 1.415938 0.695230
v 0.518225 1.650119 0.707831
v 0.465666 1.668715 0.520735
v 0.450758 1.434534 0.508135
v 0.284977 1.427451 0.741128
v 0.232418 1.446047 0.554032
v 0.247326 1.680228 0.566633
v 0.299885 1.661632 0.753729
v 0.503317 1.415938 0.695230
v 0.284977 1.427451 0.741128
v 0.299885 1.661632 0.753729
v 0.518225 1.650119 0.707831
v 0.450758 1.434534 0.508135
v 0.465666 1.668715 0.520735
v 0.247326 1.680228 0.566633
v 0.232418 1.446047 0.554032
v 0.503317 1.415938 0.695230
v 0.450758 1.434534 0.508135
v 0.232418 1.446047 0.554032
v 0.284977 1.427451 0.741128
v 0.518225 1.650119 0.707831
v 0.299885 1.661632 0.753729
v 0.247326 1.680228 0.566633
v 0.465666 1.668715 0.520735
v 0.450125 1.412562 0.541658
v 0.441469 1.645924 0.564574
v 0.400704 1.671772 0.375901
v 0.409360 1.438410 0.352985
v 0.228945 1.398665 0.575535
v 0.188181 1.424514 0.386862
v 0.179525 1.657876 0.409778
v 0.220290 1.632027 0.598450
v 0.450125 1.412562 0.541658
v 0.228945 1.398665 0.575535
v 0.220290 1.632027 0.598450
v 0.441469 1.645924 0.564574
v 0.409360 1.438410 0.352985
v 0.400704 1.671772 0.375901
v 0.179525 1.657876 0.409778
v 0.188181 1.424514 0.386862
v 0.450125 1.412562 0.541658
v 0.409360 1.438410 0.352985
v 0.188181 1.424514 0.386862
v 0.228945 1.398665 0.575535
v 0.441469 1.645924 0.564574
v 0.220290 1.632027 0.598450
v 0.179525 1.657876 0.409778
v 0.400704 1.671772 0.375901
v 0.584515 1.435563 0.518882
v 0.579160 1.670607 0.524193
v 0.533307 1.675804 0.335235
v 0.538663 1.440759 0.329924
v 0.364229 1.428767 0.558085
v 0.318377 1.433964 0.369126
v 0.313021 1.669008 0.374437
v 0.358874 1.663812 0.563396
v 0.584515 1.435563 0.518882
v 0.364229 1.428767 0.558085
v 0.358874 1.663812 0.563396
v 0.579160 1.670607 0.524193
v 0.538663 1.440759 0.329924
v 0.533307 1.675804 0.335235
v 0.313021 1.669008 0.374437
v 0.318377 1.433964 0.369126
v 0.584515 1.435563 0.518882
v 0.538663 1.440759 0.329924
v 0.318377 1.433964 0.369126
v 0.364229 1.428767 0.558085
v 0.579160 1.670607 0.524193
v 0.358874 1.663812 0.563396
v 0.313021 1.669008 0.374437
v 0.533307 1.675804 0.335235
v 0.632457 1.444777 0.492714
v 0.630880 1.679907 0.497255
v 0.577840 1.684895 0.309682
v 0.579417 1.449766 0.305141
v 0.413730 1.441873 0.538167
v 0.360690 1.446861 0.350594
v 0.359113 1.681991 0.355135
v 0.412154 1.677002 0.542708
v 0.632457 1.444777 0.492714
v 0.413730 1.441873 0.538167
v 0.412154 1.677002 0.542708
v 0.630880 1.679907 0.497255
v 0.579417 1.449766 0.305141
v 0.577840 1.684895 0.309682
v 0.359113 1.681991 0.355135
v 0.360690 1.446861 0.350594
v 0.632457 1.444777 0.492714
v 0.579417 1.449766 0.305141
v 0.360690 1.446861 0.350594
v 0.413730 1.441873 0.538167
v 0.630880 1.679907 0.497255
v 0.412154 1.677002 0.542708
v 0.359113 1.681991 0.355135
v 0.577840 1.684895 0.309682
v 0.602273 1.452988 0.652122
v 0.594232 1.687971 0.656737
v 0.554304 1.692017 0.466773
v 0.562345 1.457034 0.462158
v 0.380918 1.443723 0.686220
v 0.340990 1.447768 0.496256
v 0.332949 1.682751 0.500871
v 0.372877 1.678706 0.690835
v 0.602273 1.452988 0.652122
v 0.380918 1.443723 0.686220
v 0.372877 1.678706 0.690835
v 0.594232 1.687971 0.656737
v 0.562345 1.457034 0.462158
v 0.554304 1.692017 0.466773
v 0.332949 1.682751 0.500871
v 0.340990 1.447768 0.496256
v 0.602273 1.452988 0.652122
v 0.562345 1.457034 0.462158
v 0.340990 1.447768 0.496256
v 0.380918 1.443723 0.686220
v 0.594232 1.687971 0.656737
v 0.372877 1.678706 0.690835
v 0.332949 1.682751 0.500871
v 0.554304 1.692017 0.466773
v 0.801530 1.505282 0.560341
v 0.799292 1.740459 0.562218
v 0.711747 1.663685 0.285873
v 0.713984 1.428508 0.283996
v 0.585423 1.502398 0.614233
v 0.497878 1.425624 0.337888
v 0.495641 1.660802 0.339765
v 0.583186 1.737576 0.616110
v 0.801530 1.505282 0.560341
v 0.585423 1.502398 0.614233
v 0.583186 1.737576 0.616110
v 0.799292 1.740459 0.562218
v 0.713984 1.428508 0.283996
v 0.711747 1.663685 0.285873
v 0.495641 1.660802 0.339765
v 0.497878 1.425624 0.337888
v 0.801530 1.505282 0.560341
v 0.713984 1.428508 0.283996
v 0.497878 1.425624 0.337888
v 0.585423 1.502398 0.614233
v 0.799292 1.740459 0.562218
v 0.583186 1.737576 0.616110
v 0.495641 1.660802 0.339765
v 0.711747 1.663685 0.285873
v 0.664539 1.446113 0.625041
v 0.661514 1.681121 0.632385
v 0.612568 1.689167 0.444066
v 0.615592 1.454159 0.436723
v 0.444875 1.441084 0.666902
v 0.395929 1.449130 0.478584
v 0.392904 1.684139 0.485927
v 0.441851 1.676093 0.674246
v 0.664539 1.446113 0.625041
v 0.444875 1.441084 0.666902
v 0.441851 1.676093 0.674246
v 0.661514 1.681121 0.632385
v 0.615592 1.454159 0.436723
v 0.612568 1.689167 0.444066
v 0.392904 1.684139 0.485927
v 0.395929 1.449130 0.478584
v 0.664539 1.446113 0.625041
v 0.615592 1.454159 0.436723
v 0.395929 1.449130 0.478584
v 0.444875 1.441084 0.666902
v 0.661514 1.681121 0.632385
v 0.441851 1.676093 0.674246
v 0.392904 1.684139 0.485927
v 0.612568 1.689167 0.444066
v 0.680997 1.446459 0.604755
v 0.684836 1.681169 0.616767
v 0.632358 1.696336 0.429446
v 0.628519 1.461626 0.417434
v 0.462163 1.446939 0.649886
v 0.409685 1.462106 0.462565
v 0.413524 1.696816 0.474578
v 0.466001 1.681650 0.661898
v 0.680997 1.446459 0.604755
v 0.462163 1.446939 0.649886
v 0.466001 1.681650 0.661898
v 0.684836 1.681169 0.616767
v 0.628519 1.461626 0.417434
v 0.632358 1.696336 0.429446
v 0.413524 1.696816 0.474578
v 0.409685 1.462106 0.462565
v 0.680997 1.446459 0.604755
v 0.628519 1.461626 0.417434
v 0.409685 1.462106 0.462565
v 0.462163 1.446939 0.649886
v 0.684836 1.681169 0.616767
v 0.466001 1.681650 0.661898
v 0.413524 1.696816 0.474578
v 0.632358 1.696336 0.429446
v 0.608564 1.460822 0.569621
v 0.600549 1.695865 0.571229
v 0.560955 1.696320 0.381185
v 0.568970 1.461277 0.379577
v 0.387148 1.452233 0.603546
v 0.347554 1.452688 0.413502
v 0.339539 1.687730 0.415110
v 0.379133 1.687276 0.605154
v 0.608564 1.460822 0.569621
v 0.387148 1.452233 0.603546
v 0.379133 1.687276 0.605154
v 0.600549 1.695865 0.571229
v 0.568970 1.461277 0.379577
v 0.560955 1.696320 0.381185
v 0.339539 1.687730 0.415110
v 0.347554 1.452688 0.413502
v 0.608564 1.460822 0.569621
v 0.568970 1.461277 0.379577
v 0.347554 1.452688 0.413502
v 0.387148 1.452233 0.603546
v 0.600549 1.695865 0.571229
v 0.379133 1.687276 0.605154
v 0.339539 1.687730 0.415110
v 0.560955 1.696320 0.381185
v 0.638776 1.573214 0.606310
v 0.664815 1.797483 0.580370
v 0.586508 1.674578 0.300760
v 0.560468 1.450309 0.326699
v 0.418227 1.573408 0.644814
v 0.339920 1.450503 0.365204
v 0.365959 1.674772 0.339265
v 0.444266 1.797677 0.618875
v 0.638776 1.573214 0.606310
v 0.418227 1.573408 0.644814
v 0.444266 1.797677 0.618875
v 0.664815 1.797483 0.580370
v 0.560468 1.450309 0.326699
v 0.586508 1.674578 0.300760
v 0.365959 1.674772 0.339265
v 0.339920 1.450503 0.365204
v 0.638776 1.573214 0.606310
v 0.560468 1.450309 0.326699
v 0.339920 1.450503 0.365204
v 0.418227 1.573408 0.644814
v 0.664815 1.797483 0.580370
v 0.444266 1.797677 0.618875
v 0.365959 1.674772 0.339265
v 0.586508 1.674578 0.300760
v 0.424834 2.016172 1.048188
v 0.431732 2.133353 1.042604
v 0.316587 2.091988 0.353131
v 0.309689 1.974807 0.358715
v 0.313646 2.024263 1.061523
v 0.198502 1.982898 0.372050
v 0.205400 2.100079 0.366466
v 0.320545 2.141444 1.055938
v 0.424834 2.016172 1.048188
v 0.313646 2.024263 1.061523
v 0.320545 2.141444 1.055938
v 0.431732 2.133353 1.042604
v 0.309689 1.974807 0.358715
v 0.316587 2.091988 0.353131
v 0.205400 2.100079 0.366466
v 0.198502 1.982898 0.372050
v 0.424834 2.016172 1.048188
v 0.309689 1.974807 0.358715
v 0.198502 1.982898 0.372050
v 0.313646 2.024263 1.061523
v 0.431732 2.133353 1.042604
v 0.320545 2.141444 1.055938
v 0.205400 2.100079 0.366466
v 0.316587 2.091988 0.353131
v 0.218885 2.002479 0.454967
v 0.220928 2.093445 0.447320
v 0.209050 2.084501 0.373301
v 0.207008 1.993535 0.380947
v 0.132191 2.005847 0.464927
v 0.120314 1.996904 0.390908
v 0.122356 2.087870 0.383262
v 0.134234 2.096813 0.457281
v 0.218885 2.002479 0.454967
v 0.132191 2.005847 0.464927
v 0.134234 2.096813 0.457281
v 0.220928 2.093445 0.447320
v 0.207008 1.993535 0.380947
v 0.209050 2.084501 0.373301
v 0.122356 2.087870 0.383262
v 0.120314 1.996904 0.390908
v 0.218885 2.002479 0.454967
v 0.207008 1.993535 0.380947
v 0.120314 1.996904 0.390908
v 0.132191 2.005847 0.464927
v 0.220928 2.093445 0.447320
v 0.134234 2.096813 0.457281
v 0.122356 2.087870 0.383262
v 0.209050 2.084501 0.373301
v 0.047906 1.897948 0.477888
v 0.050856 2.002189 0.471987
v 0.034049 1.995616 0.387577
v 0.031098 1.891376 0.393477
v -0.050659 1.902189 0.492105
v -0.067467 1.895616 0.407695
v -0.064517 1.999857 0.401794
v -0.047709 2.006429 0.486204
v 0.047906 1.897948 0.477888
v -0.050659 1.902189 0.492105
v -0.047709 2.006429 0.486204
v 0.050856 2.002189 0.471987
v 0.031098 1.891376 0.393477
v 0.034049 1.995616 0.387577
v -0.064517 1.999857 0.401794
v -0.067467 1.895616 0.407695
v 0.047906 1.897948 0.477888
v 0.031098 1.891376 0.393477
v -0.067467 1.895616 0.407695
v -0.050659 1.902189 0.492105
v 0.050856 2.002189 0.471987
v -0.047709 2.006429 0.486204
v -0.064517 1.999857 0.401794
v 0.034049 1.995616 0.387577
v -0.238519 2.004102 0.516558
v -0.235513 2.102708 0.514518
v -0.253606 2.100869 0.435029
v -0.256613 2.002264 0.437069
v -0.331158 2.007661 0.532016
v -0.349251 2.005823 0.452528
v -0.346245 2.104428 0.450488
v -0.328152 2.106267 0.529976
v -0.238519 2.004102 0.516558
v -0.331158 2.007661 0.532016
v -0.328152 2.106267 0.529976
v -0.235513 2.102708 0.514518
v -0.256613 2.002264 0.437069
v -0.253606 2.100869 0.435029
v -0.346245 2.104428 0.450488
v -0.349251 2.005823 0.452528
v -0.238519 2.004102 0.516558
v -0.256613 2.002264 0.437069
v -0.349251 2.005823 0.452528
v -0.331158 2.007661 0.532016
v -0.235513 2.102708 0.514518
v -0.328152 2.106267 0.529976
v -0.346245 2.104428 0.450488
v -0.253606 2.100869 0.435029
v -0.153038 2.005819 0.498523
v -0.153288 2.102843 0.495193
v -0.165926 2.098788 0.416296
v -0.165676 2.001765 0.419625
v -0.245101 2.006112 0.509363
v -0.257739 2.002058 0.430465
v -0.257989 2.099082 0.427135
v -0.245351 2.103136 0.506033
v -0.153038 2.005819 0.498523
v -0.245101 2.006112 0.509363
v -0.245351 2.103136 0.506033
v -0.153288 2.102843 0.495193
v -0.165676 2.001765 0.419625
v -0.165926 2.098788 0.416296
v -0.257989 2.099082 0.427135
v -0.257739 2.002058 0.430465
v -0.153038 2.005819 0.498523
v -0.165676 2.001765 0.419625
v -0.257739 2.002058 0.430465
v -0.245101 2.006112 0.509363
v -0.153288 2.102843 0.495193
v -0.245351 2.103136 0.506033
v -0.257989 2.099082 0.427135
v -0.165926 2.098788 0.416296
v 0.036302 1.992918 1.130774
v 0.042457 2.187230 1.113898
v -0.066377 2.100425 0.411340
v -0.072533 1.906112 0.428217
v -0.075202 1.998355 1.143031
v -0.184037 1.911550 0.440473
v -0.177881 2.105862 0.423596
v -0.069046 2.192667 1.126154
v 0.036302 1.992918 1.130774
v -0.075202 1.998355 1.143031
v -0.069046 2.192667 1.126154
v 0.042457 2.187230 1.113898
v -0.072533 1.906112 0.428217
v -0.066377 2.100425 0.411340
v -0.177881 2.105862 0.423596
v -0.184037 1.911550 0.440473
v 0.036302 1.992918 1.130774
v -0.072533 1.906112 0.428217
v -0.184037 1.911550 0.440473
v -0.075202 1.998355 1.143031
v 0.042457 2.187230 1.113898
v -0.069046 2.192667 1.126154
v -0.177881 2.105862 0.423596
v -0.066377 2.100425 0.411340
v -0.046299 1.900168 0.498305
v -0.044750 2.004445 0.492451
v -0.063605 1.997744 0.408367
v -0.065154 1.893467 0.414221
v -0.144525 1.903098 0.514354
v -0.163381 1.896398 0.430269
v -0.161831 2.000675 0.424415
v -0.142976 2.007376 0.508499
v -0.046299 1.900168 0.498305
v -0.144525 1.903098 0.514354
v -0.142976 2.007376 0.508499
v -0.044750 2.004445 0.492451
v -0.065154 1.893467 0.414221
v -0.063605 1.997744 0.408367
v -0.161831 2.000675 0.424415
v -0.163381 1.896398 0.430269
v -0.046299 1.900168 0.498305
v -0.065154 1.893467 0.414221
v -0.163381 1.896398 0.430269
v -0.144525 1.903098 0.514354
v -0.044750 2.004445 0.492451
v -0.142976 2.007376 0.508499
v -0.161831 2.000675 0.424415
v -0.063605 1.997744 0.408367
v 0.031404 1.687029 0.491072
v 0.034040 1.789659 0.488048
v 0.022603 1.786318 0.404342
v 0.019967 1.683689 0.407366
v -0.066201 1.690192 0.500798
v -0.077638 1.686852 0.417092
v -0.075002 1.789481 0.414068
v -0.063565 1.792822 0.497774
v 0.031404 1.687029 0.491072
v -0.066201 1.690192 0.500798
v -0.063565 1.792822 0.497774
v 0.034040 1.789659 0.488048
v 0.019967 1.683689 0.407366
v 0.022603 1.786318 0.404342
v -0.075002 1.789481 0.414068
v -0.077638 1.686852 0.417092
v 0.031404 1.687029 0.491072
v 0.019967 1.683689 0.407366
v -0.077638 1.686852 0.417092
v -0.066201 1.690192 0.500798
v 0.034040 1.789659 0.488048
v -0.063565 1.792822 0.497774
v -0.075002 1.789481 0.414068
v 0.022603 1.786318 0.404342
v -0.056698 1.689621 0.508024
v -0.054723 1.793941 0.502805
v -0.070495 1.787987 0.418217
v -0.072470 1.683667 0.423436
v -0.155459 1.692658 0.521428
v -0.171231 1.686704 0.436840
v -0.169256 1.791023 0.431622
v -0.153484 1.796978 0.516210
v -0.056698 1.689621 0.508024
v -0.155459 1.692658 0.521428
v -0.153484 1.796978 0.516210
v -0.054723 1.793941 0.502805
v -0.072470 1.683667 0.423436
v -0.070495 1.787987 0.418217
v -0.169256 1.791023 0.431622
v -0.171231 1.686704 0.436840
v -0.056698 1.689621 0.508024
v -0.072470 1.683667 0.423436
v -0.171231 1.686704 0.436840
v -0.155459 1.692658 0.521428
v -0.054723 1.793941 0.502805
v -0.153484 1.796978 0.516210
v -0.169256 1.791023 0.431622
v -0.070495 1.787987 0.418217
v -0.139314 1.520773 0.561205
v -0.137387 1.677473 0.565490
v -0.154132 1.682886 0.437668
v -0.156058 1.526186 0.433383
v -0.288411 1.522190 0.575615
v -0.305156 1.527603 0.447793
v -0.303229 1.684303 0.452078
v -0.286485 1.678890 0.579900
v -0.139314 1.520773 0.561205
v -0.288411 1.522190 0.575615
v -0.286485 1.678890 0.579900
v -0.137387 1.677473 0.565490
v -0.156058 1.526186 0.433383
v -0.154132 1.682886 0.437668
v -0.303229 1.684303 0.452078
v -0.305156 1.527603 0.447793
v -0.139314 1.520773 0.561205
v -0.156058 1.526186 0.433383
v -0.305156 1.527603 0.447793
v -0.288411 1.522190 0.575615
v -0.137387 1.677473 0.565490
v -0.286485 1.678890 0.579900
v -0.303229 1.684303 0.452078
v -0.154132 1.682886 0.437668
v -0.215675 2.015809 1.110872
v -0.220754 2.133289 1.111048
v -0.333871 2.129406 0.456537
v -0.328791 2.011926 0.456360
v -0.326878 2.010527 1.125033
v -0.439994 2.006644 0.470522
v -0.445074 2.124124 0.470698
v -0.331957 2.128007 1.125209
v -0.215675 2.015809 1.110872
v -0.326878 2.010527 1.125033
v -0.331957 2.128007 1.125209
v -0.220754 2.133289 1.111048
v -0.328791 2.011926 0.456360
v -0.333871 2.129406 0.456537
v -0.445074 2.124124 0.470698
v -0.439994 2.006644 0.470522
v -0.215675 2.015809 1.110872
v -0.328791 2.011926 0.456360
v -0.439994 2.006644 0.470522
v -0.326878 2.010527 1.125033
v -0.220754 2.133289 1.111048
v -0.331957 2.128007 1.125209
v -0.445074 2.124124 0.470698
v -0.333871 2.129406 0.456537
v 0.129487 2.003292 0.465399
v 0.130458 2.094448 0.459271
v 0.118945 2.087179 0.385086
v 0.117973 1.996024 0.391214
v 0.042725 2.005277 0.475175
v 0.031212 1.998009 0.400990
v 0.032183 2.089165 0.394862
v 0.043697 2.096433 0.469047
v 0.129487 2.003292 0.465399
v 0.042725 2.005277 0.475175
v 0.043697 2.096433 0.469047
v 0.130458 2.094448 0.459271
v 0.117973 1.996024 0.391214
v 0.118945 2.087179 0.385086
v 0.032183 2.089165 0.394862
v 0.031212 1.998009 0.400990
v 0.129487 2.003292 0.465399
v 0.117973 1.996024 0.391214
v 0.031212 1.998009 0.400990
v 0.042725 2.005277 0.475175
v 0.130458 2.094448 0.459271
v 0.043697 2.096433 0.469047
v 0.032183 2.089165 0.394862
v 0.118945 2.087179 0.385086
v 0.322229 1.535345 0.505713
v 0.325982 1.690834 0.489418
v 0.296301 1.672137 0.364194
v 0.292548 1.516648 0.380490
v 0.140943 1.544892 0.536367
v 0.111262 1.526195 0.411144
v 0.115015 1.681684 0.394848
v 0.144696 1.700381 0.520071
v 0.322229 1.535345 0.505713
v 0.140943 1.544892 0.536367
v 0.144696 1.700381 0.520071
v 0.325982 1.690834 0.489418
v 0.292548 1.516648 0.380490
v 0.296301 1.672137 0.364194
v 0.115015 1.681684 0.394848
v 0.111262 1.526195 0.411144
v 0.322229 1.535345 0.505713
v 0.292548 1.516648 0.380490
v 0.111262 1.526195 0.411144
v 0.140943 1.544892 0.536367
v 0.325982 1.690834 0.489418
v 0.144696 1.700381 0.520071
v 0.115015 1.681684 0.394848
v 0.296301 1.672137 0.364194
v 0.318671 1.367354 0.504006
v 0.320623 1.545582 0.506586
v 0.287541 1.549263 0.353707
v 0.285590 1.371035 0.351126
v 0.005466 1.370027 0.553913
v -0.027615 1.373708 0.401034
v -0.025664 1.551935 0.403614
v 0.007418 1.548255 0.556493
v 0.318671 1.367354 0.504006
v 0.005466 1.370027 0.553913
v 0.007418 1.548255 0.556493
v 0.320623 1.545582 0.506586
v 0.285590 1.371035 0.351126
v 0.287541 1.549263 0.353707
v -0.025664 1.551935 0.403614
v -0.027615 1.373708 0.401034
v 0.318671 1.367354 0.504006
v 0.285590 1.371035 0.351126
v -0.027615 1.373708 0.401034
v 0.005466 1.370027 0.553913
v 0.320623 1.545582 0.506586
v 0.007418 1.548255 0.556493
v -0.025664 1.551935 0.403614
v 0.287541 1.549263 0.353707
v 0.137495 1.522830 0.516254
v 0.146178 1.679336 0.518839
v 0.123126 1.683849 0.391718
v 0.114443 1.527343 0.389133
v -0.010517 1.531309 0.536204
v -0.033568 1.535821 0.409083
v -0.024885 1.692327 0.411667
v -0.001834 1.687815 0.538789
v 0.137495 1.522830 0.516254
v -0.010517 1.531309 0.536204
v -0.001834 1.687815 0.538789
v 0.146178 1.679336 0.518839
v 0.114443 1.527343 0.389133
v 0.123126 1.683849 0.391718
v -0.024885 1.692327 0.411667
v -0.033568 1.535821 0.409083
v 0.137495 1.522830 0.516254
v 0.114443 1.527343 0.389133
v -0.033568 1.535821 0.409083
v -0.010517 1.531309 0.536204
v 0.146178 1.679336 0.518839
v -0.001834 1.687815 0.538789
v -0.024885 1.692327 0.411667
v 0.123126 1.683849 0.391718
v -0.428088 1.331723 0.595531
v -0.437169 1.703505 0.585562
v -0.321548 1.722885 0.995018
v -0.312467 1.351103 1.004987
v 0.321313 1.345499 0.439399
v 0.436935 1.364879 0.848855
v 0.427853 1.736661 0.838886
v 0.312232 1.717281 0.429430
v -0.428088 1.331723 0.595531
v 0.321313 1.345499 0.439399
v 0.312232 1.717281 0.429430
v -0.437169 1.703505 0.585562
v -0.312467 1.351103 1.004987
v -0.321548 1.722885 0.995018
v 0.427853 1.736661 0.838886
v 0.436935 1.364879 0.848855
v -0.428088 1.331723 0.595531
v -0.312467 1.351103 1.004987
v 0.436935 1.364879 0.848855
v 0.321313 1.345499 0.439399
v -0.437169 1.703505 0.585562
v 0.312232 1.717281 0.429430
v 0.427853 1.736661 0.838886
v -0.321548 1.722885 0.995018
v 0.451946 1.717024 0.996337
v 0.454038 1.825655 0.989985
v 0.312193 1.774005 0.360570
v 0.310101 1.665374 0.366922
v -0.307889 1.743814 1.120841
v -0.449734 1.692164 0.491426
v -0.447642 1.800795 0.485073
v -0.305797 1.852445 1.114488
v 0.451946 1.717024 0.996337
v -0.307889 1.743814 1.120841
v -0.305797 1.852445 1.114488
v 0.454038 1.825655 0.989985
v 0.310101 1.665374 0.366922
v 0.312193 1.774005 0.360570
v -0.447642 1.800795 0.485073
v -0.449734 1.692164 0.491426
v 0.451946 1.717024 0.996337
v 0.310101 1.665374 0.366922
v -0.449734 1.692164 0.491426
v -0.307889 1.743814 1.120841
v 0.454038 1.825655 0.989985
v -0.305797 1.852445 1.114488
v -0.447642 1.800795 0.485073
v 0.312193 1.774005 0.360570
v 0.128262 2.009566 1.107311
v 0.132058 2.172565 1.094595
v 0.038583 2.093999 0.395550
v 0.034787 1.931000 0.408266
v 0.008238 2.013948 1.118787
v -0.085236 1.935382 0.419742
v -0.081440 2.098381 0.407026
v 0.012035 2.176947 1.106071
v 0.128262 2.009566 1.107311
v 0.008238 2.013948 1.118787
v 0.012035 2.176947 1.106071
v 0.132058 2.172565 1.094595
v 0.034787 1.931000 0.408266
v 0.038583 2.093999 0.395550
v -0.081440 2.098381 0.407026
v -0.085236 1.935382 0.419742
v 0.128262 2.009566 1.107311
v 0.034787 1.931000 0.408266
v -0.085236 1.935382 0.419742
v 0.008238 2.013948 1.118787
v 0.132058 2.172565 1.094595
v 0.012035 2.176947 1.106071
v -0.081440 2.098381 0.407026
v 0.038583 2.093999 0.395550
v 0.432968 1.810934 1.052660
v 0.438233 2.035120 1.041838
v 0.309610 1.989688 0.361757
v 0.304345 1.765501 0.372579
v -0.313063 1.837419 1.155279
v -0.441687 1.791987 0.475197
v -0.436422 2.016174 0.464375
v -0.307798 2.061606 1.144456
v 0.432968 1.810934 1.052660
v -0.313063 1.837419 1.155279
v -0.307798 2.061606 1.144456
v 0.438233 2.035120 1.041838
v 0.304345 1.765501 0.372579
v 0.309610 1.989688 0.361757
v -0.436422 2.016174 0.464375
v -0.441687 1.791987 0.475197
v 0.432968 1.810934 1.052660
v 0.304345 1.765501 0.372579
v -0.441687 1.791987 0.475197
v -0.313063 1.837419 1.155279
v 0.438233 2.035120 1.041838
v -0.307798 2.061606 1.144456
v -0.436422 2.016174 0.464375
v 0.309610 1.989688 0.361757
v 0.316048 1.999087 0.366219
v 0.424657 2.008055 0.933935
v 0.434677 2.276860 0.929664
v 0.326068 2.267892 0.361947
v -0.442205 2.032460 0.472589
v -0.432186 2.301265 0.468318
v -0.323577 2.310233 1.036035
v -0.333596 2.041428 1.040306
v 0.316048 1.999087 0.366219
v -0.442205 2.032460 0.472589
v -0.333596 2.041428 1.040306
v 0.424657 2.008055 0.933935
v 0.326068 2.267892 0.361947
v 0.434677 2.276860 0.929664
v -0.323577 2.310233 1.036035
v -0.432186 2.301265 0.468318
v 0.316048 1.999087 0.366219
v 0.326068 2.267892 0.361947
v -0.432186 2.301265 0.468318
v -0.442205 2.032460 0.472589
v 0.424657 2.008055 0.933935
v -0.333596 2.041428 1.040306
v -0.323577 2.310233 1.036035
v 0.434677 2.276860 0.929664
v 0.343242 2.239153 0.352301
v 0.455662 2.233368 1.021697
v 0.464188 2.473632 1.012416
v 0.351769 2.479416 0.343020
v -0.437423 2.275940 0.466231
v -0.428896 2.516204 0.456951
v -0.316476 2.510419 1.126347
v -0.325003 2.270155 1.135627
v 0.343242 2.239153 0.352301
v -0.437423 2.275940 0.466231
v -0.325003 2.270155 1.135627
v 0.455662 2.233368 1.021697
v 0.351769 2.479416 0.343020
v 0.464188 2.473632 1.012416
v -0.316476 2.510419 1.126347
v -0.428896 2.516204 0.456951
v 0.343242 2.239153 0.352301
v 0.351769 2.479416 0.343020
v -0.428896 2.516204 0.456951
v -0.437423 2.275940 0.466231
v 0.455662 2.233368 1.021697
v -0.325003 2.270155 1.135627
v -0.316476 2.510419 1.126347
v 0.464188 2.473632 1.012416
v 0.007250 1.377744 0.515024
v 0.012837 1.533697 0.527492
v -0.015479 1.549721 0.401787
v -0.021066 1.393768 0.389320
v -0.139995 1.380579 0.539671
v -0.168311 1.396603 0.413966
v -0.162725 1.552556 0.426434
v -0.134409 1.536533 0.552138
v 0.007250 1.377744 0.515024
v -0.139995 1.380579 0.539671
v -0.134409 1.536533 0.552138
v 0.012837 1.533697 0.527492
v -0.021066 1.393768 0.389320
v -0.015479 1.549721 0.401787
v -0.162725 1.552556 0.426434
v -0.168311 1.396603 0.413966
v 0.007250 1.377744 0.515024
v -0.021066 1.393768 0.389320
v -0.168311 1.396603 0.413966
v -0.139995 1.380579 0.539671
v 0.012837 1.533697 0.527492
v -0.134409 1.536533 0.552138
v -0.162725 1.552556 0.426434
v -0.015479 1.549721 0.401787
v -0.152043 1.687329 0.518808
v -0.149195 1.791814 0.517867
v -0.165200 1.791159 0.433172
v -0.168048 1.686674 0.434112
v -0.250745 1.690450 0.532514
v -0.266750 1.689795 0.447819
v -0.263902 1.794280 0.446879
v -0.247897 1.794935 0.531574
v -0.152043 1.687329 0.518808
v -0.250745 1.690450 0.532514
v -0.247897 1.794935 0.531574
v -0.149195 1.791814 0.517867
v -0.168048 1.686674 0.434112
v -0.165200 1.791159 0.433172
v -0.263902 1.794280 0.446879
v -0.266750 1.689795 0.447819
v -0.152043 1.687329 0.518808
v -0.168048 1.686674 0.434112
v -0.266750 1.689795 0.447819
v -0.250745 1.690450 0.532514
v -0.149195 1.791814 0.517867
v -0.247897 1.794935 0.531574
v -0.263902 1.794280 0.446879
v -0.165200 1.791159 0.433172
v -0.354994 1.925765 0.953903
v -0.356777 2.259266 0.945556
v -0.321680 2.266551 1.136143
v -0.319896 1.933050 1.144489
v 0.406493 1.926380 0.850713
v 0.441591 1.933664 1.041299
v 0.439807 2.267165 1.032953
v 0.404709 2.259880 0.842366
v -0.354994 1.925765 0.953903
v 0.406493 1.926380 0.850713
v 0.404709 2.259880 0.842366
v -0.356777 2.259266 0.945556
v -0.319896 1.933050 1.144489
v -0.321680 2.266551 1.136143
v 0.439807 2.267165 1.032953
v 0.441591 1.933664 1.041299
v -0.354994 1.925765 0.953903
v -0.319896 1.933050 1.144489
v 0.441591 1.933664 1.041299
v 0.406493 1.926380 0.850713
v -0.356777 2.259266 0.945556
v 0.404709 2.259880 0.842366
v 0.439807 2.267165 1.032953
v -0.321680 2.266551 1.136143
v 0.137702 1.685592 0.473767
v 0.140927 1.789873 0.468485
v 0.122903 1.784147 0.384219
v 0.119677 1.679866 0.389500
v 0.039360 1.690062 0.489039
v 0.021336 1.684336 0.404772
v 0.024561 1.788616 0.399490
v 0.042586 1.794343 0.483757
v 0.137702 1.685592 0.473767
v 0.039360 1.690062 0.489039
v 0.042586 1.794343 0.483757
v 0.140927 1.789873 0.468485
v 0.119677 1.679866 0.389500
v 0.122903 1.784147 0.384219
v 0.024561 1.788616 0.399490
v 0.021336 1.684336 0.404772
v 0.137702 1.685592 0.473767
v 0.119677 1.679866 0.389500
v 0.021336 1.684336 0.404772
v 0.039360 1.690062 0.489039
v 0.140927 1.789873 0.468485
v 0.042586 1.794343 0.483757
v 0.024561 1.788616 0.399490
v 0.122903 1.784147 0.384219
v -0.293682 1.378109 0.558272
v -0.285045 1.531768 0.582811
v -0.308312 1.562726 0.458229
v -0.316948 1.409068 0.433690
v -0.441662 1.382209 0.579291
v -0.464929 1.413168 0.454710
v -0.456293 1.566826 0.479249
v -0.433026 1.535868 0.603831
v -0.293682 1.378109 0.558272
v -0.441662 1.382209 0.579291
v -0.433026 1.535868 0.603831
v -0.285045 1.531768 0.582811
v -0.316948 1.409068 0.433690
v -0.308312 1.562726 0.458229
v -0.456293 1.566826 0.479249
v -0.464929 1.413168 0.454710
v -0.293682 1.378109 0.558272
v -0.316948 1.409068 0.433690
v -0.464929 1.413168 0.454710
v -0.441662 1.382209 0.579291
v -0.285045 1.531768 0.582811
v -0.433026 1.535868 0.603831
v -0.456293 1.566826 0.479249
v -0.308312 1.562726 0.458229
v -0.152841 1.796160 0.521871
v -0.151814 1.900509 0.516855
v -0.166491 1.894620 0.432119
v -0.167518 1.790271 0.437135
v -0.251785 1.798116 0.534389
v -0.266462 1.792228 0.449653
v -0.265435 1.896577 0.444637
v -0.250757 1.902465 0.529372
v -0.152841 1.796160 0.521871
v -0.251785 1.798116 0.534389
v -0.250757 1.902465 0.529372
v -0.151814 1.900509 0.516855
v -0.167518 1.790271 0.437135
v -0.166491 1.894620 0.432119
v -0.265435 1.896577 0.444637
v -0.266462 1.792228 0.449653
v -0.152841 1.796160 0.521871
v -0.167518 1.790271 0.437135
v -0.266462 1.792228 0.449653
v -0.251785 1.798116 0.534389
v -0.151814 1.900509 0.516855
v -0.250757 1.902465 0.529372
v -0.265435 1.896577 0.444637
v -0.166491 1.894620 0.432119
v -0.005314 1.515861 0.543001
v -0.001212 1.672505 0.547537
v -0.025814 1.678662 0.420676
v -0.029916 1.522018 0.416140
v -0.153274 1.519181 0.564220
v -0.177876 1.525337 0.437359
v -0.173774 1.681981 0.441895
v -0.149172 1.675824 0.568756
v -0.005314 1.515861 0.543001
v -0.153274 1.519181 0.564220
v -0.149172 1.675824 0.568756
v -0.001212 1.672505 0.547537
v -0.029916 1.522018 0.416140
v -0.025814 1.678662 0.420676
v -0.173774 1.681981 0.441895
v -0.177876 1.525337 0.437359
v -0.005314 1.515861 0.543001
v -0.029916 1.522018 0.416140
v -0.177876 1.525337 0.437359
v -0.153274 1.519181 0.564220
v -0.001212 1.672505 0.547537
v -0.149172 1.675824 0.568756
v -0.173774 1.681981 0.441895
v -0.025814 1.678662 0.420676
vn 0.9919 0.0560 -0.1143
vn -0.9919 -0.0560 0.1143
vn 0.0873 -0.0474 0.9951
vn -0.0873 0.0474 -0.9951
vn 0.0548 -0.9955 -0.0769
vn -0.0548 0.9955 0.0769
vn 0.9804 -0.0382 -0.1932
vn -0.9804 0.0382 0.1932
vn 0.1448 0.0342 0.9889
vn -0.1448 -0.0342 -0.9889
vn -0.0341 -0.9977 0.0580
vn 0.0341 0.9977 -0.0580
vn 0.3157 -0.2559 0.9137
vn 0.2079 -0.1699 0.9633
vn -0.1618 0.1330 -0.9778
vn 0.4573 -0.6559 0.6005
vn 0.4573 -0.6560 0.6005
vn 0.4518 -0.6769 0.5810
vn 0.4626 -0.6332 0.6205
vn -0.3421 0.2520 -0.9052
vn -0.3422 0.2520 -0.9052
vn -0.2105 0.1345 -0.9683
vn 0.1459 -0.0776 0.9863
vn -0.8378 -0.3340 0.4318
vn -0.8379 -0.3340 0.4318
vn -0.5714 -0.4508 0.6858
vn -0.9933 -0.1141 0.0173
vn -0.2931 0.6921 -0.6596
vn -0.1304 0.6932 -0.7088
vn 0.1025 0.0328 0.9942
vn -0.1025 -0.0328 -0.9942
vn -0.9904 0.0061 0.1384
vn 0.9904 -0.0061 -0.1384
vn -0.0016 -0.9988 0.0492
vn 0.0016 0.9988 -0.0492
vn 0.9670 -0.0337 -0.2525
vn -0.9670 0.0337 0.2525
vn 0.1101 0.0162 0.9938
vn -0.1101 -0.0162 -0.9938
vn 0.0183 -0.8906 0.4544
vn -0.0183 0.8906 -0.4544
vn 0.1536 -0.0598 0.9863
vn 0.1535 -0.0595 0.9864
vn 0.1541 -0.0606 0.9862
vn 0.1530 -0.0587 0.9865
vn 0.9062 -0.4046 0.1230
vn 0.9090 -0.3973 0.1257
vn 0.9032 -0.4121 0.1202
vn -0.1539 0.0765 -0.9851
vn -0.1537 0.0767 -0.9851
vn -0.1543 0.0761 -0.9851
vn -0.1533 0.0771 -0.9852
vn -0.9055 0.4059 -0.1240
vn -0.9003 0.4125 -0.1388
vn -0.9102 0.3994 -0.1098
vn 0.1061 -0.8181 0.5652
vn -0.1111 0.8025 -0.5862
vn 0.9870 -0.0469 -0.1540
vn -0.9870 0.0469 0.1540
vn 0.1131 -0.0167 0.9934
vn -0.1131 0.0167 -0.9934
vn -0.0537 -0.9984 -0.0166
vn 0.0537 0.9984 0.0166
vn 0.9477 0.0384 -0.3170
vn -0.9477 -0.0384 0.3170
vn 0.2370 0.0414 0.9706
vn -0.2370 -0.0414 -0.9706
vn 0.0551 -0.9975 0.0449
vn -0.0551 0.9975 -0.0449
vn 0.9517 0.0152 -0.3065
vn -0.9517 -0.0152 0.3065
vn 0.2306 -0.0043 0.9730
vn -0.2306 0.0043 -0.9730
vn 0.0148 -0.9998 -0.0113
vn 0.0147 -0.9998 -0.0113
vn -0.0148 0.9998 0.0113
vn -0.0147 0.9998 0.0113
vn 0.9628 -0.0131 -0.2698
vn -0.9628 0.0131 0.2698
vn 0.2020 0.0053 0.9794
vn -0.2020 -0.0053 -0.9794
vn -0.0125 -0.9999 0.0115
vn 0.0125 0.9999 -0.0115
vn 0.9585 -0.0098 -0.2848
vn -0.9585 0.0098 0.2848
vn 0.2137 0.0204 0.9767
vn -0.2137 -0.0204 -0.9767
vn -0.0041 -0.9995 0.0323
vn 0.0041 0.9995 -0.0323
vn 0.9526 -0.0231 -0.3033
vn -0.9526 0.0231 0.3033
vn 0.2271 -0.0330 0.9733
vn -0.2271 0.0330 -0.9733
vn -0.0356 -0.9986 -0.0390
vn 0.0356 0.9986 0.0390
vn 0.9748 0.0588 -0.2150
vn -0.9748 -0.0588 0.2150
vn 0.1608 -0.0100 0.9869
vn -0.1608 0.0100 -0.9869
vn 0.0610 -0.9977 -0.0286
vn 0.0611 -0.9977 -0.0286
vn -0.0610 0.9977 0.0286
vn 0.9864 -0.0259 -0.1624
vn -0.9864 0.0259 0.1624
vn -0.0114 -0.9901 0.1400
vn 0.0114 0.9901 -0.1400
vn -0.1224 -0.0928 -0.9881
vn 0.1224 0.0928 0.9881
vn 0.9927 -0.0437 -0.1123
vn -0.9927 0.0437 0.1123
vn -0.0483 -0.9988 -0.0036
vn 0.0483 0.9988 0.0036
vn -0.0826 0.0061 -0.9966
vn 0.0826 -0.0061 0.9966
vn 0.9648 -0.0313 -0.2612
vn -0.9648 0.0313 0.2612
vn -0.0312 -0.9993 0.0210
vn 0.0312 0.9993 -0.0210
vn -0.1956 -0.0083 -0.9806
vn 0.1956 0.0083 0.9806
vn 0.9919 -0.0455 -0.1183
vn -0.9919 0.0455 0.1183
vn -0.0459 -0.9979 0.0462
vn 0.0459 0.9979 -0.0462
vn -0.0887 -0.0273 -0.9957
vn 0.0887 0.0273 0.9957
vn 0.9685 -0.0364 -0.2464
vn -0.9685 0.0364 0.2464
vn -0.0317 -0.9983 0.0499
vn 0.0317 0.9983 -0.0499
vn -0.1850 -0.0277 -0.9823
vn 0.1850 0.0277 0.9823
vn 0.9687 -0.0461 -0.2437
vn -0.9687 0.0461 0.2437
vn 0.1823 0.0054 0.9832
vn -0.1823 -0.0054 -0.9832
vn -0.0482 -0.9986 0.0203
vn 0.0482 0.9986 -0.0203
vn 0.9787 -0.0208 -0.2040
vn -0.9787 0.0208 0.2040
vn 0.1522 0.0289 0.9879
vn -0.1522 -0.0289 -0.9879
vn -0.0161 -0.9988 0.0467
vn 0.0161 0.9988 -0.0467
vn 0.9689 -0.0404 -0.2441
vn -0.9689 0.0404 0.2441
vn 0.1832 0.0221 0.9828
vn -0.1832 -0.0221 -0.9828
vn -0.0375 -0.9984 0.0429
vn 0.0375 0.9984 -0.0429
vn -0.9951 0.0346 0.0923
vn 0.9951 -0.0346 -0.0923
vn -0.1563 -0.0436 -0.9868
vn 0.1563 0.0436 0.9868
vn 0.0165 -0.9290 0.3697
vn -0.0165 0.9290 -0.3697
vn -0.9792 0.0217 0.2016
vn 0.9792 -0.0217 -0.2016
vn -0.1475 0.0754 -0.9862
vn 0.1475 -0.0754 0.9862
vn -0.0399 -0.9937 -0.1046
vn 0.0399 0.9937 0.1046
vn 0.9605 -0.0464 -0.2744
vn -0.9605 0.0464 0.2744
vn 0.2020 -0.0654 0.9772
vn -0.2020 0.0654 -0.9772
vn -0.0691 -0.9944 -0.0794
vn 0.0691 0.9944 0.0794
vn 0.9775 0.0562 -0.2035
vn -0.9775 -0.0562 0.2035
vn 0.1563 -0.0908 0.9835
vn -0.1563 0.0908 -0.9835
vn 0.0401 -0.9888 -0.1441
vn 0.0400 -0.9888 -0.1441
vn -0.0400 0.9888 0.1441
vn -0.0401 0.9888 0.1441
vn 0.9716 0.0274 -0.2350
vn -0.9716 -0.0274 0.2350
vn 0.1757 -0.0182 0.9843
vn -0.1757 0.0182 -0.9843
vn 0.0249 -0.9991 -0.0335
vn -0.0249 0.9991 0.0335
vn 0.9623 0.0117 -0.2718
vn -0.9623 -0.0117 0.2718
vn 0.2037 -0.0175 0.9789
vn -0.2037 0.0175 -0.9789
vn 0.0073 -0.9996 -0.0287
vn -0.0073 0.9996 0.0287
vn 0.9781 0.0375 -0.2048
vn -0.9781 -0.0375 0.2048
vn 0.1528 -0.0142 0.9882
vn -0.1528 0.0142 -0.9882
vn 0.0373 -0.9989 -0.0291
vn -0.0373 0.9989 0.0291
vn 0.9523 0.0115 -0.3049
vn -0.9523 -0.0115 0.3049
vn 0.2420 -0.0054 0.9703
vn -0.2420 0.0054 -0.9703
vn 0.0740 -0.9667 0.2451
vn -0.0740 0.9667 -0.2451
vn 0.9679 0.0203 -0.2507
vn -0.9679 -0.0203 0.2507
vn 0.1877 -0.0283 0.9818
vn -0.1877 0.0283 -0.9818
vn 0.0140 -0.9988 -0.0463
vn -0.0140 0.9988 0.0463
vn 0.9629 -0.0019 -0.2699
vn -0.9629 0.0019 0.2699
vn 0.2016 -0.0534 0.9780
vn -0.2016 0.0534 -0.9780
vn -0.0178 -0.9970 -0.0757
vn 0.0178 0.9970 0.0757
vn 0.9784 0.0348 -0.2038
vn -0.9784 -0.0348 0.2038
vn 0.1515 -0.0016 0.9885
vn -0.1515 0.0016 -0.9885
vn 0.0372 -0.9993 -0.0101
vn -0.0372 0.9993 0.0101
vn 0.9679 -0.1368 -0.2109
vn -0.9679 0.1368 0.2109
vn 0.1713 0.0935 0.9808
vn -0.1713 -0.0935 -0.9808
vn 0.0666 -0.9202 0.3858
vn -0.0666 0.9202 -0.3858
vn 0.9848 -0.0656 -0.1605
vn -0.9848 0.0656 0.1605
vn 0.1219 0.0401 0.9917
vn -0.1219 -0.0401 -0.9917
vn -0.0640 -0.9955 0.0704
vn 0.0640 0.9955 -0.0704
vn 0.9874 -0.0351 -0.1542
vn -0.9874 0.0351 0.1542
vn 0.1169 0.0806 0.9899
vn -0.1169 -0.0806 -0.9899
vn -0.0243 -0.9920 0.1238
vn 0.0243 0.9920 -0.1238
vn 0.9806 -0.0386 -0.1922
vn -0.9806 0.0386 0.1922
vn 0.1448 0.0518 0.9881
vn -0.1448 -0.0518 -0.9881
vn -0.0308 -0.9960 0.0837
vn 0.0308 0.9960 -0.0837
vn 0.9747 -0.0343 -0.2211
vn -0.9747 0.0343 0.2211
vn 0.1651 0.0154 0.9861
vn -0.1651 -0.0154 -0.9861
vn -0.1652 -0.0154 -0.9861
vn -0.0333 -0.9990 0.0307
vn 0.0333 0.9990 -0.0307
vn 0.9874 -0.0029 -0.1580
vn -0.9874 0.0029 0.1580
vn 0.1170 0.0344 0.9925
vn -0.1170 -0.0344 -0.9925
vn 0.0028 -0.9987 0.0509
vn -0.0028 0.9987 -0.0509
vn 0.9881 -0.0441 -0.1476
vn -0.9881 0.0441 0.1476
vn 0.1129 0.0824 0.9902
vn -0.1129 -0.0824 -0.9902
vn -0.0343 -0.9912 0.1278
vn 0.0343 0.9912 -0.1278
vn 0.9759 -0.0267 -0.2167
vn -0.9759 0.0267 0.2167
vn 0.1626 0.0529 0.9853
vn -0.1626 -0.0529 -0.9853
vn -0.0162 -0.9964 0.0830
vn 0.0162 0.9964 -0.0830
vn 0.9905 -0.0294 -0.1342
vn -0.9905 0.0294 0.1342
vn 0.1000 0.0267 0.9946
vn -0.1000 -0.0267 -0.9946
vn -0.0280 -0.9987 0.0437
vn 0.0280 0.9987 -0.0437
vn 0.9830 -0.0277 -0.1813
vn -0.9830 0.0277 0.1813
vn 0.1358 0.0469 0.9896
vn -0.1358 -0.0469 -0.9896
vn -0.0206 -0.9970 0.0740
vn 0.0206 0.9970 -0.0740
vn 0.9914 -0.0086 -0.1302
vn -0.9914 0.0086 0.1302
vn 0.0959 -0.0284 0.9950
vn -0.0959 0.0284 -0.9950
vn -0.0134 -0.9991 -0.0406
vn 0.0134 0.9991 0.0406
vn 0.9844 0.0428 -0.1704
vn -0.9844 -0.0428 0.1704
vn 0.1261 0.0040 0.9920
vn -0.1261 -0.0040 -0.9920
vn 0.0472 -0.9989 -0.0022
vn -0.0472 0.9989 0.0022
vn 0.9883 -0.0207 -0.1513
vn -0.9883 0.0207 0.1513
vn 0.1132 0.0654 0.9914
vn -0.1132 -0.0654 -0.9914
vn -0.0116 -0.9950 0.0993
vn 0.0116 0.9950 -0.0993
vn 0.9735 -0.0469 -0.2237
vn -0.9735 0.0469 0.2237
vn 0.1710 0.0986 0.9803
vn -0.1710 -0.0986 -0.9803
vn -0.0260 -0.9878 0.1537
vn 0.0260 0.9878 -0.1537
vn 0.9773 -0.0076 -0.2117
vn -0.9773 0.0076 0.2117
vn 0.1572 -0.0160 0.9874
vn -0.1572 0.0160 -0.9874
vn -0.0120 -0.9997 -0.0215
vn 0.0120 0.9997 0.0215
vn 0.9823 -0.0515 -0.1800
vn -0.9823 0.0515 0.1800
vn 0.1322 -0.0237 0.9909
vn -0.1322 0.0237 -0.9909
vn -0.0605 -0.9979 -0.0245
vn 0.0605 0.9979 0.0245
vn -0.9620 -0.0162 0.2724
vn 0.9620 0.0162 -0.2724
vn -0.2033 -0.0312 -0.9786
vn 0.2033 0.0312 0.9786
vn 0.0266 -0.9989 0.0398
vn -0.0266 0.9989 -0.0398
vn 0.9756 -0.0315 -0.2173
vn -0.9756 0.0315 0.2173
vn 0.1633 0.0545 0.9851
vn -0.1633 -0.0545 -0.9851
vn -0.0210 -0.9960 0.0865
vn 0.0210 0.9960 -0.0865
vn 0.9911 -0.0331 -0.1288
vn -0.9911 0.0331 0.1288
vn 0.0976 0.0751 0.9924
vn -0.0976 -0.0751 -0.9924
vn -0.0253 -0.9930 0.1150
vn 0.0253 0.9930 -0.1150
vn 0.9825 -0.0319 -0.1837
vn -0.9825 0.0319 0.1837
vn 0.1377 0.0445 0.9895
vn -0.1377 -0.0445 -0.9895
vn -0.0256 -0.9971 0.0714
vn 0.0256 0.9971 -0.0714
vn 0.9815 -0.0396 -0.1872
vn -0.9815 0.0396 0.1872
vn -0.0407 -0.9989 0.0236
vn 0.0407 0.9989 -0.0236
vn -0.1394 -0.0105 -0.9902
vn 0.1394 0.0105 0.9902
vn 0.9853 -0.0414 -0.1658
vn -0.9853 0.0414 0.1658
vn -0.0472 -0.9989 -0.0007
vn 0.0472 0.9989 0.0007
vn -0.1459 -0.0330 -0.9888
vn 0.1459 0.0330 0.9888
vn 0.9749 -0.0172 -0.2218
vn -0.9749 0.0172 0.2218
vn 0.1629 -0.0844 0.9830
vn -0.1629 0.0844 -0.9830
vn -0.0388 -0.9923 -0.1177
vn 0.0388 0.9923 0.1177
vn 0.9823 -0.0284 -0.1854
vn -0.9823 0.0284 0.1854
vn 0.1377 0.0052 0.9905
vn -0.1377 -0.0052 -0.9905
vn -0.0297 -0.9995 0.0133
vn 0.0297 0.9995 -0.0133
vn -0.9835 -0.0007 0.1811
vn 0.9835 0.0007 -0.1811
vn -0.1342 -0.0255 -0.9906
vn 0.1342 0.0255 0.9906
vn 0.0058 -0.9993 0.0371
vn -0.0058 0.9993 -0.0371
vn 0.9776 -0.0407 -0.2064
vn -0.9776 0.0407 0.2064
vn 0.1553 0.0452 0.9868
vn -0.1553 -0.0452 -0.9868
vn -0.0337 -0.9966 0.0749
vn 0.0337 0.9966 -0.0749
vn 0.9816 -0.0249 -0.1895
vn -0.9816 0.0249 0.1895
vn 0.1343 -0.1636 0.9773
vn -0.1343 0.1636 -0.9773
vn -0.0596 -0.9713 -0.2302
vn 0.0596 0.9713 0.2302
vn 0.9854 -0.0178 -0.1694
vn -0.9854 0.0178 0.1694
vn 0.1263 0.0464 0.9909
vn -0.1263 -0.0464 -0.9909
vn -0.0107 -0.9974 0.0712
vn 0.0107 0.9974 -0.0712
vn 0.9813 -0.0202 -0.1913
vn -0.9813 0.0202 0.1913
vn 0.1412 -0.0324 0.9895
vn -0.1412 0.0324 -0.9895
vn -0.0286 -0.9987 -0.0429
vn 0.0286 0.9987 0.0429
s 0
f 4//1 2//1 1//1
f 4//1 3//1 2//1
f 8//2 6//2 5//2
f 8//2 7//2 6//2
f 12//3 10//3 9//3
f 12//3 11//3 10//3
f 16//4 14//4 13//4
f 16//4 15//4 14//4
s 1
f 20//5 18//5 17//5
s 0
f 20//5 19//5 18//5
f 24//6 22//6 21//6
f 24//6 23//6 22//6
f 28//7 26//7 25//7
f 28//7 27//7 26//7
f 32//8 30//8 29//8
f 32//8 31//8 30//8
f 36//9 34//9 33//9
f 36//9 35//9 34//9
f 40//10 38//10 37//10
f 40//10 39//10 38//10
f 44//11 42//11 41//11
f 44//11 43//11 42//11
f 48//12 46//12 45//12
f 48//12 47//12 46//12
s 1
f 49//13 51//13 50//14
f 49//13 52//15 51//13
f 56//16 54//17 53//18
f 56//16 55//19 54//17
f 57//20 59//21 58//22
f 57//20 60//23 59//21
f 64//24 62//25 61//26
f 64//24 63//27 62//25
s 0
f 68//28 66//28 65//28
f 68//28 67//28 66//28
s 1
f 72//29 70//29 69//29
f 72//29 71//29 70//29
s 0
f 76//30 74//30 73//30
f 76//30 75//30 74//30
s 1
f 80//31 78//31 77//31
f 80//31 79//31 78//31
s 0
f 84//32 82//32 81//32
s 1
f 84//32 83//32 82//32
s 0
f 88//33 86//33 85//33
s 1
f 88//33 87//33 86//33
s 0
f 92//34 90//34 89//34
f 92//34 91//34 90//34
f 96//35 94//35 93//35
f 96//35 95//35 94//35
f 100//36 98//36 97//36
f 100//36 99//36 98//36
s 1
f 104//37 102//37 101//37
s 0
f 104//37 103//37 102//37
f 108//38 106//38 105//38
f 108//38 107//38 106//38
f 112//39 110//39 109//39
f 112//39 111//39 110//39
f 116//40 114//40 113//40
f 116//40 115//40 114//40
f 120//41 118//41 117//41
s 1
f 120//41 119//41 118//41
f 124//42 122//43 121//44
f 124//42 123//45 122//43
f 128//46 126//46 125//47
f 128//46 127//48 126//46
f 132//49 130//50 129//51
f 132//49 131//52 130//50
f 136//53 134//53 133//54
f 136//53 135//55 134//53
s 0
f 140//56 138//56 137//56
f 140//56 139//56 138//56
f 144//57 142//57 141//57
s 1
f 144//57 143//57 142//57
s 0
f 148//58 146//58 145//58
f 148//58 147//58 146//58
f 152//59 150//59 149//59
f 152//59 151//59 150//59
f 156//60 154//60 153//60
f 156//60 155//60 154//60
f 160//61 158//61 157//61
f 160//61 159//61 158//61
f 164//62 162//62 161//62
f 164//62 163//62 162//62
f 168//63 166//63 165//63
f 168//63 167//63 166//63
f 172//64 170//64 169//64
f 172//64 171//64 170//64
f 176//65 174//65 173//65
f 176//65 175//65 174//65
f 180//66 178//66 177//66
s 1
f 180//66 179//66 178//66
f 184//67 182//67 181//67
s 0
f 184//67 183//67 182//67
f 188//68 186//68 185//68
f 188//68 187//68 186//68
f 192//69 190//69 189//69
f 192//69 191//69 190//69
f 196//70 194//70 193//70
f 196//70 195//70 194//70
f 200//71 198//71 197//71
f 200//71 199//71 198//71
f 204//72 202//72 201//72
f 204//72 203//72 202//72
f 208//73 206//73 205//73
f 208//73 207//73 206//73
f 212//74 210//74 209//74
f 212//75 211//75 210//75
f 216//76 214//76 213//76
f 216//77 215//77 214//77
f 220//78 218//78 217//78
f 220//78 219//78 218//78
f 224//79 222//79 221//79
f 224//79 223//79 222//79
s 1
f 228//80 226//80 225//80
f 228//80 227//80 226//80
s 0
f 232//81 230//81 229//81
f 232//81 231//81 230//81
f 236//82 234//82 233//82
f 236//82 235//82 234//82
f 240//83 238//83 237//83
f 240//83 239//83 238//83
f 244//84 242//84 241//84
f 244//84 243//84 242//84
f 248//85 246//85 245//85
f 248//85 247//85 246//85
f 252//86 250//86 249//86
f 252//86 251//86 250//86
f 256//87 254//87 253//87
f 256//87 255//87 254//87
s 1
f 260//88 258//88 257//88
s 0
f 260//88 259//88 258//88
s 1
f 264//89 262//89 261//89
s 0
f 264//89 263//89 262//89
f 268//90 266//90 265//90
f 268//90 267//90 266//90
f 272//91 270//91 269//91
f 272//91 271//91 270//91
f 276//92 274//92 273//92
f 276//92 275//92 274//92
f 280//93 278//93 277//93
f 280//93 279//93 278//93
f 284//94 282//94 281//94
f 284//94 283//94 282//94
f 288//95 286//95 285//95
f 288//95 287//95 286//95
f 292//96 290//96 289//96
f 292//96 291//96 290//96
f 296//97 294//97 293//97
f 296//97 295//97 294//97
f 300//98 298//98 297//98
f 300//98 299//98 298//98
f 304//99 302//99 301//99
f 304//99 303//99 302//99
f 308//100 306//100 305//100
f 308//101 307//101 306//101
f 312//102 310//102 309//102
f 312//102 311//102 310//102
f 316//103 314//103 313//103
f 316//103 315//103 314//103
f 320//104 318//104 317//104
f 320//104 319//104 318//104
f 324//105 322//105 321//105
f 324//105 323//105 322//105
f 328//106 326//106 325//106
f 328//106 327//106 326//106
f 332//107 330//107 329//107
f 332//107 331//107 330//107
f 336//108 334//108 333//108
f 336//108 335//108 334//108
f 340//109 338//109 337//109
f 340//109 339//109 338//109
f 344//110 342//110 341//110
f 344//110 343//110 342//110
f 348//111 346//111 345//111
f 348//111 347//111 346//111
f 352//112 350//112 349//112
f 352//112 351//112 350//112
f 356//113 354//113 353//113
f 356//113 355//113 354//113
f 360//114 358//114 357//114
f 360//114 359//114 358//114
f 364//115 362//115 361//115
f 364//115 363//115 362//115
f 368//116 366//116 365//116
f 368//116 367//116 366//116
f 372//117 370//117 369//117
f 372//117 371//117 370//117
s 1
f 376//118 374//118 373//118
s 0
f 376//118 375//118 374//118
f 380//119 378//119 377//119
f 380//119 379//119 378//119
f 384//120 382//120 381//120
f 384//120 383//120 382//120
f 388//121 386//121 385//121
f 388//121 387//121 386//121
f 392//122 390//122 389//122
f 392//122 391//122 390//122
s 1
f 396//123 394//123 393//123
s 0
f 396//123 395//123 394//123
s 1
f 400//124 398//124 397//124
f 400//124 399//124 398//124
s 0
f 404//125 402//125 401//125
s 1
f 404//125 403//125 402//125
s 0
f 408//126 406//126 405//126
f 408//126 407//126 406//126
s 1
f 412//127 410//127 409//127
s 0
f 412//127 411//127 410//127
s 1
f 416//128 414//128 413//128
f 416//128 415//128 414//128
s 0
f 420//129 418//129 417//129
f 420//129 419//129 418//129
f 424//130 422//130 421//130
f 424//130 423//130 422//130
f 428//131 426//131 425//131
f 428//131 427//131 426//131
s 1
f 432//132 430//132 429//132
s 0
f 432//132 431//132 430//132
f 436//133 434//133 433//133
f 436//133 435//133 434//133
f 440//134 438//134 437//134
f 440//134 439//134 438//134
s 1
f 444//135 442//135 441//135
s 0
f 444//135 443//135 442//135
f 448//136 446//136 445//136
f 448//136 447//136 446//136
f 452//137 450//137 449//137
f 452//137 451//137 450//137
f 456//138 454//138 453//138
f 456//138 455//138 454//138
f 460//139 458//139 457//139
f 460//139 459//139 458//139
f 464//140 462//140 461//140
f 464//140 463//140 462//140
f 468//141 466//141 465//141
f 468//141 467//141 466//141
f 472//142 470//142 469//142
f 472//142 471//142 470//142
f 476//143 474//143 473//143
s 1
f 476//143 475//143 474//143
f 480//144 478//144 477//144
s 0
f 480//144 479//144 478//144
f 484//145 482//145 481//145
f 484//145 483//145 482//145
f 488//146 486//146 485//146
f 488//146 487//146 486//146
s 1
f 492//147 490//147 489//147
f 492//147 491//147 490//147
f 496//148 494//148 493//148
f 496//148 495//148 494//148
s 0
f 500//149 498//149 497//149
f 500//149 499//149 498//149
f 504//150 502//150 501//150
f 504//150 503//150 502//150
f 508//151 506//151 505//151
f 508//151 507//151 506//151
f 512//152 510//152 509//152
f 512//152 511//152 510//152
f 516//153 514//153 513//153
s 1
f 516//153 515//153 514//153
s 0
f 520//154 518//154 517//154
f 520//154 519//154 518//154
s 1
f 524//155 522//155 521//155
s 0
f 524//155 523//155 522//155
f 528//156 526//156 525//156
f 528//156 527//156 526//156
s 1
f 532//157 530//157 529//157
s 0
f 532//157 531//157 530//157
f 536//158 534//158 533//158
s 1
f 536//158 535//158 534//158
s 0
f 540//159 538//159 537//159
f 540//159 539//159 538//159
f 544//160 542//160 541//160
f 544//160 543//160 542//160
f 548//161 546//161 545//161
f 548//161 547//161 546//161
f 552//162 550//162 549//162
f 552//162 551//162 550//162
f 556//163 554//163 553//163
f 556//163 555//163 554//163
f 560//164 558//164 557//164
s 1
f 560//164 559//164 558//164
s 0
f 564//165 562//165 561//165
s 1
f 564//165 563//165 562//165
s 0
f 568//166 566//166 565//166
f 568//166 567//166 566//166
f 572//167 570//167 569//167
s 1
f 572//167 571//167 570//167
s 0
f 576//168 574//168 573//168
f 576//168 575//168 574//168
f 580//169 578//169 577//169
f 580//169 579//169 578//169
f 584//170 582//170 581//170
f 584//170 583//170 582//170
f 588//171 586//171 585//171
f 588//171 587//171 586//171
f 592//172 590//172 589//172
f 592//172 591//172 590//172
f 596//173 594//173 593//173
f 596//174 595//174 594//174
f 600//175 598//175 597//175
f 600//176 599//176 598//176
f 604//177 602//177 601//177
f 604//177 603//177 602//177
s 1
f 608//178 606//178 605//178
s 0
f 608//178 607//178 606//178
f 612//179 610//179 609//179
f 612//179 611//179 610//179
f 616//180 614//180 613//180
f 616//180 615//180 614//180
f 620//181 618//181 617//181
f 620//181 619//181 618//181
f 624//182 622//182 621//182
f 624//182 623//182 622//182
f 628//183 626//183 625//183
s 1
f 628//183 627//183 626//183
s 0
f 632//184 630//184 629//184
f 632//184 631//184 630//184
f 636//185 634//185 633//185
f 636//185 635//185 634//185
f 640//186 638//186 637//186
f 640//186 639//186 638//186
f 644//187 642//187 641//187
f 644//187 643//187 642//187
f 648//188 646//188 645//188
f 648//188 647//188 646//188
s 1
f 652//189 650//189 649//189
s 0
f 652//189 651//189 650//189
f 656//190 654//190 653//190
s 1
f 656//190 655//190 654//190
s 0
f 660//191 658//191 657//191
f 660//191 659//191 658//191
f 664//192 662//192 661//192
f 664//192 663//192 662//192
f 668//193 666//193 665//193
f 668//193 667//193 666//193
f 672//194 670//194 669//194
f 672//194 671//194 670//194
f 676//195 674//195 673//195
f 676//195 675//195 674//195
f 680//196 678//196 677//196
f 680//196 679//196 678//196
f 684//197 682//197 681//197
f 684//197 683//197 682//197
f 688//198 686//198 685//198
f 688//198 687//198 686//198
s 1
f 692//199 690//199 689//199
s 0
f 692//199 691//199 690//199
s 1
f 696//200 694//200 693//200
f 696//200 695//200 694//200
s 0
f 700//201 698//201 697//201
s 1
f 700//201 699//201 698//201
s 0
f 704//202 702//202 701//202
f 704//202 703//202 702//202
f 708//203 706//203 705//203
f 708//203 707//203 706//203
f 712//204 710//204 709//204
f 712//204 711//204 710//204
f 716//205 714//205 713//205
f 716//205 715//205 714//205
f 720//206 718//206 717//206
f 720//206 719//206 718//206
f 724//207 722//207 721//207
f 724//207 723//207 722//207
f 728//208 726//208 725//208
s 1
f 728//208 727//208 726//208
s 0
f 732//209 730//209 729//209
f 732//209 731//209 730//209
f 736//210 734//210 733//210
f 736//210 735//210 734//210
f 740//211 738//211 737//211
f 740//211 739//211 738//211
f 744//212 742//212 741//212
f 744//212 743//212 742//212
f 748//213 746//213 745//213
s 1
f 748//213 747//213 746//213
s 0
f 752//214 750//214 749//214
f 752//214 751//214 750//214
f 756//215 754//215 753//215
f 756//215 755//215 754//215
f 760//216 758//216 757//216
f 760//216 759//216 758//216
f 764//217 762//217 761//217
f 764//217 763//217 762//217
f 768//218 766//218 765//218
f 768//218 767//218 766//218
f 772//219 770//219 769//219
f 772//219 771//219 770//219
s 1
f 776//220 774//220 773//220
f 776//220 775//220 774//220
s 0
f 780//221 778//221 777//221
f 780//221 779//221 778//221
f 784//222 782//222 781//222
f 784//222 783//222 782//222
f 788//223 786//223 785//223
f 788//223 787//223 786//223
f 792//224 790//224 789//224
f 792//224 791//224 790//224
f 796//225 794//225 793//225
f 796//225 795//225 794//225
f 800//226 798//226 797//226
f 800//226 799//226 798//226
f 804//227 802//227 801//227
f 804//227 803//227 802//227
f 808//228 806//228 805//228
f 808//228 807//228 806//228
s 1
f 812//229 810//229 809//229
s 0
f 812//229 811//229 810//229
f 816//230 814//230 813//230
s 1
f 816//230 815//230 814//230
s 0
f 820//231 818//231 817//231
f 820//231 819//231 818//231
f 824//232 822//232 821//232
f 824//232 823//232 822//232
f 828//233 826//233 825//233
s 1
f 828//233 827//233 826//233
s 0
f 832//234 830//234 829//234
f 832//234 831//234 830//234
f 836//235 834//235 833//235
f 836//235 835//235 834//235
f 840//236 838//236 837//236
f 840//236 839//236 838//236
f 844//237 842//237 841//237
f 844//237 843//237 842//237
f 848//238 846//238 845//238
f 848//238 847//238 846//238
f 852//239 850//239 849//239
f 852//239 851//239 850//239
f 856//240 854//240 853//240
f 856//240 855//240 854//240
f 860//241 858//241 857//241
f 860//241 859//241 858//241
f 864//242 862//242 861//242
f 864//242 863//242 862//242
f 868//243 866//243 865//243
f 868//243 867//243 866//243
s 1
f 872//244 870//244 869//244
s 0
f 872//244 871//244 870//244
f 876//245 874//245 873//245
f 876//245 875//245 874//245
s 1
f 880//246 878//246 877//246
s 0
f 880//247 879//247 878//247
f 884//248 882//248 881//248
f 884//248 883//248 882//248
f 888//249 886//249 885//249
s 1
f 888//249 887//249 886//249
s 0
f 892//250 890//250 889//250
f 892//250 891//250 890//250
f 896//251 894//251 893//251
f 896//251 895//251 894//251
f 900//252 898//252 897//252
f 900//252 899//252 898//252
f 904//253 902//253 901//253
f 904//253 903//253 902//253
f 908//254 906//254 905//254
f 908//254 907//254 906//254
f 912//255 910//255 909//255
f 912//255 911//255 910//255
f 916//256 914//256 913//256
f 916//256 915//256 914//256
f 920//257 918//257 917//257
f 920//257 919//257 918//257
f 924//258 922//258 921//258
f 924//258 923//258 922//258
f 928//259 926//259 925//259
f 928//259 927//259 926//259
f 932//260 930//260 929//260
s 1
f 932//260 931//260 930//260
f 936//261 934//261 933//261
s 0
f 936//261 935//261 934//261
s 1
f 940//262 938//262 937//262
s 0
f 940//262 939//262 938//262
f 944//263 942//263 941//263
s 1
f 944//263 943//263 942//263
s 0
f 948//264 946//264 945//264
f 948//264 947//264 946//264
f 952//265 950//265 949//265
f 952//265 951//265 950//265
f 956//266 954//266 953//266
f 956//266 955//266 954//266
f 960//267 958//267 957//267
f 960//267 959//267 958//267
f 964//268 962//268 961//268
f 964//268 963//268 962//268
f 968//269 966//269 965//269
f 968//269 967//269 966//269
f 972//270 970//270 969//270
f 972//270 971//270 970//270
f 976//271 974//271 973//271
f 976//271 975//271 974//271
s 1
f 980//272 978//272 977//272
f 980//272 979//272 978//272
s 0
f 984//273 982//273 981//273
f 984//273 983//273 982//273
f 988//274 986//274 985//274
f 988//274 987//274 986//274
f 992//275 990//275 989//275
f 992//275 991//275 990//275
s 1
f 996//276 994//276 993//276
s 0
f 996//276 995//276 994//276
f 1000//277 998//277 997//277
s 1
f 1000//277 999//277 998//277
s 0
f 1004//278 1002//278 1001//278
f 1004//278 1003//278 1002//278
f 1008//279 1006//279 1005//279
s 1
f 1008//279 1007//279 1006//279
s 0
f 1012//280 1010//280 1009//280
f 1012//280 1011//280 1010//280
f 1016//281 1014//281 1013//281
f 1016//281 1015//281 1014//281
s 1
f 1020//282 1018//282 1017//282
s 0
f 1020//282 1019//282 1018//282
f 1024//283 1022//283 1021//283
f 1024//283 1023//283 1022//283
f 1028//284 1026//284 1025//284
f 1028//284 1027//284 1026//284
f 1032//285 1030//285 1029//285
f 1032//285 1031//285 1030//285
f 1036//286 1034//286 1033//286
f 1036//286 1035//286 1034//286
f 1040//287 1038//287 1037//287
f 1040//287 1039//287 1038//287
s 1
f 1044//288 1042//288 1041//288
s 0
f 1044//288 1043//288 1042//288
f 1048//289 1046//289 1045//289
f 1048//289 1047//289 1046//289
s 1
f 1052//290 1050//290 1049//290
f 1052//290 1051//290 1050//290
s 0
f 1056//291 1054//291 1053//291
f 1056//291 1055//291 1054//291
f 1060//292 1058//292 1057//292
f 1060//292 1059//292 1058//292
f 1064//293 1062//293 1061//293
f 1064//293 1063//293 1062//293
f 1068//294 1066//294 1065//294
f 1068//294 1067//294 1066//294
f 1072//295 1070//295 1069//295
f 1072//295 1071//295 1070//295
f 1076//296 1074//296 1073//296
s 1
f 1076//296 1075//296 1074//296
f 1080//297 1078//297 1077//297
s 0
f 1080//297 1079//297 1078//297
f 1084//298 1082//298 1081//298
s 1
f 1084//298 1083//298 1082//298
f 1088//299 1086//299 1085//299
s 0
f 1088//299 1087//299 1086//299
f 1092//300 1090//300 1089//300
f 1092//300 1091//300 1090//300
f 1096//301 1094//301 1093//301
f 1096//301 1095//301 1094//301
f 1100//302 1098//302 1097//302
f 1100//302 1099//302 1098//302
s 1
f 1104//303 1102//303 1101//303
s 0
f 1104//303 1103//303 1102//303
f 1108//304 1106//304 1105//304
f 1108//304 1107//304 1106//304
s 1
f 1112//305 1110//305 1109//305
s 0
f 1112//305 1111//305 1110//305
f 1116//306 1114//306 1113//306
f 1116//306 1115//306 1114//306
f 1120//307 1118//307 1117//307
s 1
f 1120//307 1119//307 1118//307
s 0
f 1124//308 1122//308 1121//308
f 1124//308 1123//308 1122//308
f 1128//309 1126//309 1125//309
f 1128//309 1127//309 1126//309
f 1132//310 1130//310 1129//310
f 1132//310 1131//310 1130//310
f 1136//311 1134//311 1133//311
f 1136//311 1135//311 1134//311
f 1140//312 1138//312 1137//312
f 1140//312 1139//312 1138//312
s 1
f 1144//313 1142//313 1141//313
s 0
f 1144//313 1143//313 1142//313
f 1148//314 1146//314 1145//314
f 1148//314 1147//314 1146//314
f 1152//315 1150//315 1149//315
f 1152//315 1151//315 1150//315
f 1156//316 1154//316 1153//316
f 1156//316 1155//316 1154//316
f 1160//317 1158//317 1157//317
f 1160//317 1159//317 1158//317
s 1
f 1164//318 1162//318 1161//318
s 0
f 1164//318 1163//318 1162//318
f 1168//319 1166//319 1165//319
f 1168//319 1167//319 1166//319
f 1172//320 1170//320 1169//320
f 1172//320 1171//320 1170//320
f 1176//321 1174//321 1173//321
f 1176//321 1175//321 1174//321
f 1180//322 1178//322 1177//322
f 1180//322 1179//322 1178//322
f 1184//323 1182//323 1181//323
f 1184//323 1183//323 1182//323
f 1188//324 1186//324 1185//324
f 1188//324 1187//324 1186//324
f 1192//325 1190//325 1189//325
f 1192//325 1191//325 1190//325
f 1196//326 1194//326 1193//326
f 1196//326 1195//326 1194//326
f 1200//327 1198//327 1197//327
f 1200//327 1199//327 1198//327
f 1204//328 1202//328 1201//328
f 1204//328 1203//328 1202//328
f 1208//329 1206//329 1205//329
f 1208//329 1207//329 1206//329
s 1
f 1212//330 1210//330 1209//330
f 1212//330 1211//330 1210//330
s 0
f 1216//331 1214//331 1213//331
f 1216//331 1215//331 1214//331
s 1
f 1220//332 1218//332 1217//332
s 0
f 1220//332 1219//332 1218//332
s 1
f 1224//333 1222//333 1221//333
s 0
f 1224//333 1223//333 1222//333
f 1228//334 1226//334 1225//334
s 1
f 1228//334 1227//334 1226//334
s 0
f 1232//335 1230//335 1229//335
f 1232//335 1231//335 1230//335
s 1
f 1236//336 1234//336 1233//336
s 0
f 1236//336 1235//336 1234//336
f 1240//337 1238//337 1237//337
s 1
f 1240//337 1239//337 1238//337
s 0
f 1244//338 1242//338 1241//338
f 1244//338 1243//338 1242//338
f 1248//339 1246//339 1245//339
f 1248//339 1247//339 1246//339
s 1
f 1252//340 1250//340 1249//340
s 0
f 1252//340 1251//340 1250//340
f 1256//341 1254//341 1253//341
f 1256//341 1255//341 1254//341
f 1260//342 1258//342 1257//342
f 1260//342 1259//342 1258//342
f 1264//343 1262//343 1261//343
f 1264//343 1263//343 1262//343
f 1268//344 1266//344 1265//344
f 1268//344 1267//344 1266//344
f 1272//345 1270//345 1269//345
f 1272//345 1271//345 1270//345
f 1276//346 1274//346 1273//346
f 1276//346 1275//346 1274//346
s 1
f 1280//347 1278//347 1277//347
s 0
f 1280//347 1279//347 1278//347
f 1284//348 1282//348 1281//348
f 1284//348 1283//348 1282//348
f 1288//349 1286//349 1285//349
f 1288//349 1287//349 1286//349
f 1292//350 1290//350 1289//350
f 1292//350 1291//350 1290//350
f 1296//351 1294//351 1293//351
f 1296//351 1295//351 1294//351
s 1
f 1300//352 1298//352 1297//352
f 1300//352 1299//352 1298//352
s 0
f 1304//353 1302//353 1301//353
s 1
f 1304//353 1303//353 1302//353
s 0
f 1308//354 1306//354 1305//354
f 1308//354 1307//354 1306//354
f 1312//355 1310//355 1309//355
f 1312//355 1311//355 1310//355
f 1316//356 1314//356 1313//356
f 1316//356 1315//356 1314//356
f 1320//357 1318//357 1317//357
f 1320//357 1319//357 1318//357
f 1324//358 1322//358 1321//358
f 1324//358 1323//358 1322//358
f 1328//359 1326//359 1325//359
f 1328//359 1327//359 1326//359
f 1332//360 1330//360 1329//360
f 1332//360 1331//360 1330//360
f 1336//361 1334//361 1333//361
f 1336//361 1335//361 1334//361
f 1340//362 1338//362 1337//362
f 1340//362 1339//362 1338//362
f 1344//363 1342//363 1341//363
f 1344//363 1343//363 1342//363
f 1348//364 1346//364 1345//364
f 1348//364 1347//364 1346//364
f 1352//365 1350//365 1349//365
f 1352//365 1351//365 1350//365
f 1356//366 1354//366 1353//366
f 1356//366 1355//366 1354//366
f 1360//367 1358//367 1357//367
s 1
f 1360//367 1359//367 1358//367
s 0
f 1364//368 1362//368 1361//368
f 1364//368 1363//368 1362//368
f 1368//369 1366//369 1365//369
f 1368//369 1367//369 1366//369
f 1372//370 1370//370 1369//370
s 1
f 1372//370 1371//370 1370//370
s 0
f 1376//371 1374//371 1373//371
s 1
f 1376//371 1375//371 1374//371
s 0
f 1380//372 1378//372 1377//372
f 1380//372 1379//372 1378//372
f 1384//373 1382//373 1381//373
f 1384//373 1383//373 1382//373
f 1388//374 1386//374 1385//374
f 1388//374 1387//374 1386//374
f 1392//375 1390//375 1389//375
f 1392//375 1391//375 1390//375
s 1
f 1396//376 1394//376 1393//376
s 0
f 1396//376 1395//376 1394//376
f 1400//377 1398//377 1397//377
f 1400//377 1399//377 1398//377
f 1404//378 1402//378 1401//378
f 1404//378 1403//378 1402//378
f 1408//379 1406//379 1405//379
f 1408//379 1407//379 1406//379
f 1412//380 1410//380 1409//380
f 1412//380 1411//380 1410//380
f 1416//381 1414//381 1413//381
f 1416//381 1415//381 1414//381
f 1420//382 1418//382 1417//382
f 1420//382 1419//382 1418//382
f 1424//383 1422//383 1421//383
f 1424//383 1423//383 1422//383
f 1428//384 1426//384 1425//384
s 1
f 1428//384 1427//384 1426//384
s 0
f 1432//385 1430//385 1429//385
f 1432//385 1431//385 1430//385
f 1436//386 1434//386 1433//386
f 1436//386 1435//386 1434//386
f 1440//387 1438//387 1437//387
f 1440//387 1439//387 1438//387
f 1444//388 1442//388 1441//388
f 1444//388 1443//388 1442//388
f 1448//389 1446//389 1445//389
f 1448//389 1447//389 1446//389
f 1452//390 1450//390 1449//390
f 1452//390 1451//390 1450//390
f 1456//391 1454//391 1453//391
s 1
f 1456//391 1455//391 1454//391
s 0
f 1460//392 1458//392 1457//392
f 1460//392 1459//392 1458//392
f 1464//393 1462//393 1461//393
f 1464//393 1463//393 1462//393
